<svg xmlns="http://www.w3.org/2000/svg" xmlns:xlink="http://www.w3.org/1999/xlink" width="118" height="126" viewBox="0 0 118 126">
    <defs>
        <path id="a" d="M117.517 97H0V.861h117.517z"/>
    </defs>
    <g fill="none" fill-rule="evenodd">
        <path fill="#BC2F36" d="M94.436 40.01c-7-7-1.834-40.667-35.5-40-23.019.456-31.5 12.5-41 39C9.29 63.128 36.287 67.071 40.983 67.563a10.379 10.379 0 0 1-1.047-2.303c-1.093-3.406-2.478-7.136-3.54-10.847a5.12 5.12 0 0 1-.732-.091.953.953 0 0 1-.465.044c-2.494-.463-4.41-3.637-5.314-6.433-1.28-2.075-1.815-4.147.131-5.426.15-.099.294-.168.435-.224a3.186 3.186 0 0 1 1.515-.727c.136-.111.28-.212.44-.295.864-.45 1.66-.122 2.327.459.197-3.651 1.126-7.223 3.467-10.18 4.218-5.33 11.38-8.779 18.054-10.008 15.515-2.855 27.682 4.479 27.182 19.978-.014.402-.023.799-.035 1.198.209-.052.42-.086.633-.107.015-.004.032-.012.048-.016a2.3 2.3 0 0 1 1.29-.145c.686.119 1.2.466 1.597.926a3.493 3.493 0 0 1 1.362 2.083c.105.324.188.657.228 1.006.157 1.344-.163 2.502-.754 3.538-.92 3.213-2.855 6.378-6.277 6.413a46.544 46.544 0 0 1-1.394 4.427c-.954 2.538-2.08 5.169-3.459 7.656l.76.021c20 0 24-21.5 17-28.5"/>
        <path fill="#38332D" d="M116.276 125.51l-3.578-10.383c-9.655-11.535-28.5-14.259-28.5-14.259-1.704 6.393-11.387 10.458-11.387 10.458-8.893.407-13.04-9.768-13.04-9.768s-6.169 9.119-12.747 8.816c-4.14-.19-10.062-11.47-10.062-11.47s-6.615 2.939-12.238 4.785c-5.623 1.842 0-.2-10.51 4.337-9.312 4.017-12.44 15.022-13.033 17.484h115.095z"/>
        <g transform="translate(0 28.51)">
            <mask id="b" fill="#fff">
                <use xlink:href="#a"/>
            </mask>
            <path fill="#38332D" d="M41.845 66.325c4.715 3.597 10.86 4.932 16.677 5.286-1.243 5.09-5.526 8.703-10.842 8.73-6.116.028-9.247-5.3-9.13-10.877l-.002-.034a19.526 19.526 0 0 0 3.297-3.105zm34.716 1.162c.035-.025.063-.055.094-.083a19.763 19.763 0 0 0 3.727 2.99c1.23.76 2.507 1.4 3.816 1.97-2.98 4.42-6.434 8.527-12.131 8.87-5.9.352-10.5-3.844-10.827-9.547 5.339-.018 11-1.096 15.32-4.2zM1.475 97a36.074 36.074 0 0 1 2.814-6.488c3.367-6.037 8.466-10.538 14.846-13.16 5.897-2.422 12.327-3.513 17.827-6.858.25 5.921 3.75 10.894 10.063 11.42 5.83.487 10.967-3.497 12.747-8.84.827 5.288 4.937 9.095 10.517 9.726 7.065.797 11.786-4.41 15.36-9.733.019-.026.03-.055.045-.082 4.156 1.624 8.553 2.67 12.688 4.367 6.38 2.622 11.48 7.123 14.846 13.16A35.933 35.933 0 0 1 116.042 97h1.475c-1.438-4.714-3.824-9.169-7.071-12.855-4.377-4.966-9.964-7.738-16.176-9.749-6.205-2.009-13.088-3.71-17.503-8.892-2.646-3.104-4.186-6.85-4.542-10.91-.271-3.075-.138-6.16-.15-9.24 4.934-3.434 7.888-9.529 9.505-15.569 2.436-9.083 2.784-19.07 1.507-28.366-.134-.979-1.613-.56-1.48.408 1.199 8.734.8 18.02-1.261 26.588-2.021 8.392-6.73 18.027-16.42 18.585-.983.056-.99 1.592 0 1.535 2.55-.147 4.786-1.229 6.744-2.31-.015 2.357-.09 4.714.057 7.066.297 4.84 1.892 9.358 4.854 12.93-4.278 2.994-9.715 3.85-14.877 3.844a.944.944 0 0 0-.532-.002c-.34-.004-.68-.01-1.015-.02-5.573-.184-11.837-1.477-16.34-4.97 2.398-3.37 3.708-7.447 3.973-11.782.168-2.709.046-5.426.056-8.14 1.717 1.08 4.042 2.277 6.19 2.69.977.185 1.202-1.334.232-1.52-7.81-1.497-12.574-8.858-14.99-15.874-2.465-7.15-3.27-14.939-3.26-22.472.002-.989-1.523-.796-1.525.181-.01 7.936.945 16.043 3.6 23.552 1.702 4.814 4.413 9.437 8.358 12.475-.062 3.471.145 6.948-.16 10.411-.355 4.06-1.896 7.806-4.542 10.91-4.414 5.182-11.297 6.883-17.501 8.892-6.213 2.011-11.8 4.783-16.176 9.75C3.824 87.83 1.438 92.285 0 97h1.475z" mask="url(#b)"/>
        </g>
        <path fill="#BC2F36" d="M76.367 51.002c4.758 3.052-4.826 8.357-7.744 4.886-3.03-3.608 5.06-6.604 7.744-4.886M41.922 51.826c-4.93 3.161 5 8.66 8.024 5.061 3.142-3.737-5.243-6.84-8.024-5.06"/>
        <path fill="#38332D" d="M53.262 47.277c-2.77-5.092-11.258-5.23-14.763-.863-.573.714.435 1.737 1.015 1.014 1.025-1.276 2.579-2.12 4.265-2.49-.494 1.539.187 3.51 1.905 3.848 1.898.372 2.96-1.552 2.576-3.205a2.244 2.244 0 0 0-.215-.561c1.669.454 3.135 1.43 3.98 2.98.44.814 1.68.09 1.237-.723"/>
        <path fill="#38332D" d="M60.132 59.335c-1.645.057-3.723.056-3.875-2-.116-1.523.42-3.12.672-4.612.474-2.818.24-5.635-.627-8.35-2.35-7.344-12.09-8.354-17.816-4.386-.754.524-.037 1.768.725 1.241 3.32-2.298 8.676-3.099 12.176-.892 5.129 3.232 4.109 10.336 3.376 15.426-.551 3.824 1.749 5.3 5.369 5.174 1.028-.036 1.032-1.636 0-1.6M62.389 47.277c2.77-5.092 11.26-5.23 14.765-.863.573.714-.437 1.737-1.015 1.014-1.025-1.276-2.578-2.12-4.265-2.49.494 1.539-.188 3.51-1.905 3.848-1.898.372-2.96-1.552-2.576-3.205.047-.203.12-.391.214-.561-1.668.454-3.135 1.43-3.978 2.98-.442.814-1.681.09-1.24-.723"/>
        <path fill="#38332D" d="M61.51 41.68c3.857-5.102 11.049-5.163 16.056-1.692.755.524.038 1.767-.726 1.239-4.281-2.97-10.693-3.317-14.09 1.179-.551.727-1.798.014-1.24-.725M64.031 64.686c-3.383 1.353-7.335 1.474-10.606-.271-.9-.481-1.827.826-.919 1.31 3.816 2.035 8.246 1.993 12.216.404.96-.383.264-1.825-.69-1.443M87.781 42.171c-1.494-2.033-3.848-.736-5.194.622-.59.597.227 1.628.825 1.025 2.334-2.356 3.956-.727 4.331 1.812.206 1.402-.335 2.99-.769 4.302-.839 2.546-2.612 6.035-5.762 5.75-.843-.077-.987 1.23-.14 1.307 4.455.403 6.805-4.695 7.643-8.339.527-2.293.503-4.52-.934-6.479M29.754 41.171c1.494-2.033 3.848-.736 5.194.622.59.597-.227 1.628-.825 1.025-2.334-2.356-3.956-.727-4.331 1.812-.206 1.402.335 2.99.769 4.302.839 2.546 2.612 6.035 5.762 5.75.843-.077.987 1.23.14 1.307-4.455.403-6.805-4.695-7.643-8.339-.527-2.293-.503-4.52.934-6.479"/>
        <path fill="#00A99D" d="M62.103 110.817a2.272 2.272 0 1 1-4.546 0 2.272 2.272 0 0 1 4.546 0M62.103 120.495a2.272 2.272 0 1 1-4.543 0 2.272 2.272 0 0 1 4.543 0"/>
        <path fill="#BC2F36" d="M31.936 38.677s27.5-2.167 40-15.667l12 18.5s8.25-38-25.5-37.5c-31.002.459-26.5 34.667-26.5 34.667"/>
    </g>
</svg>
