<svg xmlns="http://www.w3.org/2000/svg" xmlns:xlink="http://www.w3.org/1999/xlink" width="129" height="140" viewBox="0 0 129 140">
    <defs>
        <path id="a" d="M128.55.72V97H0V.72z"/>
    </defs>
    <g fill="none" fill-rule="evenodd">
        <path fill="#00A99D" d="M1.66 139.489h124.85s-2.063-12.952-19.594-19.677c0 0-21.419-7.503-24.31-11.923 0 0-4.959-8.813-5.2-12.105 0 0-14.5 1.025-27.54-.498 0 0-2.64 11.935-8.164 16.338-5.523 4.402-.333.18-.333.18S.171 125.49 1.66 139.49"/>
        <path fill="#38332D" d="M38.142 49.341c1.76-5.949 1.688-21.305 9.461-23.254 3.233-.81 14.276 8.18 29.563.048 6.087-3.238 12.216 17.807 13.348 20.794l.498-2.715 2.843-2.122S105.746-.738 63.221.01C20.694.76 32.81 42.332 32.81 42.332s4.713-.69 5.333 7.01"/>
        <g transform="translate(0 42.68)">
            <mask id="b" fill="#fff">
                <use xlink:href="#a"/>
            </mask>
            <path fill="#38332D" d="M47.706 63.532c2.147-2.965 3.104-6.276 3.541-9.87 8.212 1.411 18.22 2.706 26.158-.548.495 3.705 1.797 7.363 3.913 10.44-10.982 2.622-22.64 2.684-33.612-.022m73.725 21.01c-4.698-5.35-12.255-8.36-18.932-10.534-11.105-3.618-22.514-7.905-23.675-21.332-.283-3.306-.136-6.633-.143-9.947 5.313-3.683 8.5-10.238 10.25-16.73 2.176-8.08 2.801-16.83 2.187-25.28-.52.226-1.055.42-1.599.587.506 7.764-.107 15.741-1.917 23.212-2.184 9.023-7.265 18.945-17.686 19.53-.197.01-.205 1.66 0 1.647 2.738-.15 5.144-.883 7.252-2.039-.019 2.504-.099 5.012.047 7.513-.077.014-.153.016-.23.051-7.448 3.296-17.618 1.887-25.386.55-.06-.01-.11.003-.166.003.014-.187.033-.372.045-.56.184-2.91.06-5.836.073-8.754a17.921 17.921 0 0 0 6.224 2.47c1.05.204 1.292-1.43.252-1.63-8.396-1.624-13.078-9.117-15.665-16.667-2.638-7.694-3.49-16.072-3.467-24.17.003-1.064-1.636-.858-1.638.192-.026 8.533.988 17.252 3.828 25.332 1.823 5.181 4.731 10.156 8.97 13.43-.074 3.733.143 7.471-.19 11.195-.39 4.365-2.053 8.39-4.904 11.725-4.757 5.565-12.16 7.382-18.836 9.53-6.684 2.153-14.25 5.16-18.965 10.493C3.988 87.95 1.583 92.452 0 96.797l1.593.003c.707-1.739 1.565-3.816 2.562-5.598 3.632-6.485 10.678-11.333 17.543-14.14 6.557-2.684 13.69-3.926 19.672-7.89.11-.076.22-.156.333-.226 1.904-1.178 3.44-2.442 4.681-3.787.061.03.11.07.184.09 11.736 3.014 24.258 2.933 36.001 0 .015-.004.023-.014.037-.019.807.947 1.702 1.82 2.688 2.595 6.103 4.791 14.566 6.438 21.622 9.352 6.856 2.83 13.886 7.718 17.498 14.216.992 1.784 1.842 3.865 2.544 5.605l1.592.002c-1.57-4.35-3.959-8.86-7.119-12.459" mask="url(#b)"/>
        </g>
        <path fill="#38332D" d="M84.553 44.26c-4.616-3.059-11.023-2.766-15.717-.025-1.193.695-.117 2.55 1.077 1.851 4.07-2.375 9.559-2.627 13.556.022 1.156.765 2.23-1.089 1.084-1.848M83.316 50.83c-4.397-4.18-9.409-3.69-14.72-1.56-.844.336-.495 1.722.361 1.38 1.372-.549 2.73-.998 4.066-1.27-.067.582-.05 1.16.133 1.735.24.753.778 1.178 1.408 1.602.86.58 1.88.557 2.685-.08.806-.644 1.223-2.069.966-3.199 1.409.395 2.772 1.15 4.076 2.39.668.634 1.69-.36 1.025-.998M43.386 51.735c1.315-1.232 2.684-1.973 4.094-2.356-.265 1.127.14 2.556.942 3.207.798.645 1.818.674 2.683.102.632-.42 1.174-.836 1.422-1.591.188-.571.21-1.15.147-1.735 1.332.286 2.686.745 4.056 1.307.851.348 1.211-1.035.372-1.38-5.293-2.171-10.3-2.704-14.73 1.439-.675.63.343 1.635 1.014 1.007M73.722 72.422c-6.096 2.24-11.976 1.968-17.787-.989-.89-.452-1.7.875-.807 1.33 6.17 3.14 12.47 3.558 18.982 1.165.93-.34.555-1.853-.388-1.506M90.668 43.63c-.785.601-.013 1.952.783 1.344 4.79-3.664 5.754 1.601 5.658 5.51-.11 4.637-2.183 10.125-7.372 10.66-.987.102-1 1.658-.003 1.554 6.797-.698 9.008-7.623 8.94-13.649-.061-5.314-2.982-9.263-8.006-5.42M37.952 43.546c.782.604.007 1.953-.788 1.342-4.777-3.679-5.757 1.584-5.675 5.493.097 4.637 2.15 10.133 7.338 10.682.988.105.995 1.662-.002 1.555-6.794-.719-8.983-7.65-8.895-13.677.076-5.314 3.01-9.253 8.022-5.395"/>
        <path fill="#38332D" d="M66.828 65.701c-6.62-.796-4.688-5.786-3.912-10.525.55-3.358.202-6.395-1.655-9.275-3.817-5.916-13.396-5.946-18.796-2.65-1.063.65-.09 2.324.978 1.672 4.351-2.657 9.751-2.505 14.103.067 4.928 2.913 3.697 8.822 2.816 13.404-1.068 5.56.693 8.548 6.466 9.244 1.236.148 1.223-1.79 0-1.937"/>
    </g>
</svg>
