<svg xmlns="http://www.w3.org/2000/svg" xmlns:xlink="http://www.w3.org/1999/xlink" width="119" height="136" viewBox="0 0 119 136">
    <defs>
        <path id="a" d="M.325.215H58.39V81.99H.325V.215z"/>
        <path id="c" d="M55.105.887v96.922H.482V.887h54.623z"/>
    </defs>
    <g fill="none" fill-rule="evenodd">
        <g transform="translate(53 -.215)">
            <mask id="b" fill="#fff">
                <use xlink:href="#a"/>
            </mask>
            <path fill="#38332D" d="M45.205 61.209c-4.44-9.839-3.023-22.74-3.975-33.265-.615-6.788-3.505-13.585-7.49-19.145C30.797 4.691 24.47.759 19.353.284c-4.328-.4-9.148.941-12.388 3.878C4.045 6.808.027 9.471.342 13.809l4.066 12.585c8.395-3.369 20.598 3.448 23.377 11.433 1.682 4.828 2.414 9.795 2.332 14.724 1.176-.552 2.51-.751 3.625-.132.358.1.705.253 1.031.487a4.49 4.49 0 0 1 1.211 1.333c.076.056.164.095.24.156 2.036 1.628 1.483 3.845.118 5.583-.975 2.888-3.38 4.702-6.295 4.66-.475.148-.965.269-1.469.36a.956.956 0 0 1-.402-.017 49.896 49.896 0 0 1-2.629 6.951c-.01.039-.002.072-.016.113-.922 2.705-1.926 5.246-3.75 7.305 1.998 1.622 10.008 2.546 11.891 2.619 5.273.203 10.787-1.049 15.148-4.095 5.201-3.632 7.022-6.065 9.571-13.389-1.885 5.416-11.135 1.267-13.186-3.276" mask="url(#b)"/>
        </g>
        <path fill="#BC2F36" d="M99.23 135.785c-1.737-8.849-5.133-22.954-9.234-23.914-6.005-1.406-9.05-5.041-9.05-5.041-21.604 34.264-42.468 1.37-42.468 1.37s-8.74.885-10.588 2.914c-3.591 3.945-4.89 16.577-5.357 24.671h76.698z"/>
        <path fill="#38332D" d="M29.148 58.948c-1.273-3.632 1.48-7.196 4.808-7.214.27 4.312.883 8.613 1.936 12.793-3.123-.419-5.705-2.619-6.744-5.579M53.56 84.143c-7.81-1.496-12.576-8.86-14.994-15.878-2.465-7.153-3.272-14.943-3.26-22.478 0-.989-1.523-.797-1.524.182a96.743 96.743 0 0 0 .1 4.235c-3.71.058-7.198 3.756-6.485 7.96.723 4.262 4.36 7.378 8.559 7.91.13.016.241 0 .337-.036a57.21 57.21 0 0 0 1.087 3.488c1.704 4.817 4.414 9.441 8.364 12.48-.063 3.47.142 6.95-.16 10.412-.358 4.062-1.899 7.808-4.545 10.915-4.416 5.182-11.299 6.884-17.506 8.893-6.215 2.012-11.803 4.69-16.182 9.66-3.465 3.93-5.955 8.708-7.35 13.708H1.46c.748-2 1.797-4.989 3.109-7.342 3.369-6.039 8.468-10.493 14.85-13.116 4.084-1.676 8.235-3.179 12.506-4.284 12.738-3.29 14.826-14.372 15.158-19.747.166-2.71.044-5.422.053-8.137 1.72 1.081 4.043 2.28 6.194 2.691.977.186 1.202-1.329.23-1.516"/>
        <g transform="translate(63 37.785)">
            <mask id="d" fill="#fff">
                <use xlink:href="#c"/>
            </mask>
            <path fill="#38332D" d="M21.092 13.893a.786.786 0 0 0 .27.053c3.369-.043 6.175 3.555 4.89 7.218-1.023 2.922-3.56 5.099-6.631 5.557.889-4.178 1.367-8.501 1.47-12.828M47.755 84.1c-4.38-4.97-9.965-7.694-16.18-9.707-6.207-2.008-13.091-3.686-17.507-8.87-2.647-3.105-4.188-6.84-4.543-10.901-.27-3.075-.14-6.156-.151-9.237 4.936-3.434 7.89-9.53 9.51-15.57.137-.512.264-1.025.389-1.541.056.006.107.02.174.015 4.199-.533 7.837-3.648 8.56-7.91.72-4.263-2.875-8.013-6.644-7.966a.738.738 0 0 0-.252.053 78.088 78.088 0 0 0-.721-11.021c-.135-.98-1.613-.56-1.481.409 1.2 8.735.799 18.022-1.261 26.594-2.02 8.395-6.733 18.033-16.424 18.59-.985.058-.99 1.592 0 1.537 2.549-.15 4.785-1.231 6.746-2.311-.018 2.357-.09 4.715.057 7.067.699 11.333 6.086 17.32 16.529 20.437 3.805 1.136 7.525 2.15 11.133 3.632 6.38 2.622 11.482 7.028 14.85 13.067 1.312 2.354 2.36 5.342 3.109 7.342h1.459c-1.395-5-3.887-9.777-7.352-13.71" mask="url(#d)"/>
        </g>
        <path fill="#BC2F36" d="M76.69 58.372c4.76 3.052-4.826 8.359-7.746 4.887-3.032-3.608 5.061-6.605 7.745-4.887M42.234 59.197c-4.93 3.161 5.002 8.662 8.027 5.062 3.141-3.738-5.244-6.843-8.027-5.062"/>
        <path fill="#38332D" d="M53.578 54.645c-2.77-5.094-11.262-5.23-14.766-.864-.576.715.434 1.738 1.014 1.016 1.025-1.278 2.578-2.119 4.266-2.492-.494 1.54.187 3.513 1.904 3.85 1.9.373 2.963-1.553 2.578-3.207a2.198 2.198 0 0 0-.215-.56c1.67.453 3.137 1.431 3.981 2.982.441.813 1.681.088 1.238-.725"/>
        <path fill="#38332D" d="M60.45 65.975c-1.646.057-3.726.055-3.878-2-.113-1.525.422-3.123.674-4.614.474-2.819.24-5.637-.627-8.352-2.35-7.346-12.092-8.358-17.82-4.388-.754.524-.039 1.77.724 1.242 3.322-2.298 8.678-3.1 12.178-.893 5.131 3.233 4.111 10.338 3.377 15.432-.549 3.825 1.75 5.298 5.371 5.175 1.03-.037 1.031-1.638 0-1.602M62.707 54.645c2.771-5.094 11.264-5.23 14.77-.864.572.715-.438 1.738-1.016 1.016-1.025-1.278-2.58-2.119-4.266-2.492.494 1.54-.187 3.513-1.906 3.85-1.9.373-2.96-1.553-2.578-3.207.05-.202.123-.39.217-.56-1.672.453-3.137 1.431-3.979 2.982-.443.813-1.683.088-1.242-.725M61.828 48.315c3.86-5.104 11.051-5.166 16.061-1.693.753.524.037 1.77-.727 1.241-4.283-2.97-10.695-3.319-14.094 1.178-.55.728-1.797.013-1.24-.726"/>
        <path fill="#38332D" d="M33.781 45.969s19.893-.834 25.094-14.193c0 0 6.01 11.282 25.088 13.294 0 0 10.576-34.266-25.29-34.266-34.275 0-24.892 35.165-24.892 35.165M67.18 71.918c-5.492 1.779-11.127 1.414-16.551-.438-1.041-.357-1.574 1.258-.537 1.612 5.682 1.942 11.695 2.353 17.455.485 1.03-.333.678-2-.367-1.66"/>
    </g>
</svg>
