<svg xmlns="http://www.w3.org/2000/svg" xmlns:xlink="http://www.w3.org/1999/xlink" width="140" height="149" viewBox="0 0 140 149">
    <defs>
        <path id="a" d="M128.484 104.535V.303H.418v104.232z"/>
        <path id="c" d="M128.484.892v3.605H.418V.892z"/>
        <path id="e" d="M128.484.892v3.605H.418V.892h128.066z"/>
        <path id="g" d="M128.484.892v3.605H.418V.892z"/>
        <path id="i" d="M128.484.185V3.79H.418V.185z"/>
    </defs>
    <g fill="none" fill-rule="evenodd">
        <path fill="#F9F9F9" d="M-65-90h270v2091H-65z"/>
        <path fill="#BC2F36" d="M62.82 105.018h49.36V92.452H62.82zM12.564 92.452H38.59V78.09H12.564zM112.18 78.09h25.128V63.73h-25.129zM38.59 63.729H87.05V49.367H38.59z"/>
        <g transform="translate(10.77 3.3)">
            <mask id="b" fill="#fff">
                <use xlink:href="#a"/>
            </mask>
            <path fill="#8C0E03" d="M4.008 100.93h120.887V37.539L95.67 21.219a1.802 1.802 0 0 1-.923-1.576c0-4.854-4.528-8.72-9.563-7.387a1.784 1.784 0 0 1-1.474-.258 1.806 1.806 0 0 1-.768-1.289 7.613 7.613 0 0 0-7.568-6.801c-3.939 0-7.271 3.088-7.586 7.03a1.799 1.799 0 0 1-2.417 1.545 7.536 7.536 0 0 0-2.658-.49c-4.2 0-7.618 3.431-7.618 7.65a1.8 1.8 0 0 1-1.03 1.63L4.007 44.952v55.977zm122.682 3.605H2.213a1.798 1.798 0 0 1-1.795-1.803V43.81c0-.698.4-1.333 1.03-1.63L51.567 18.47c.585-5.657 5.362-10.082 11.147-10.082.626 0 1.25.054 1.87.16C65.91 3.789 70.3.304 75.376.304c5.074 0 9.413 3.385 10.767 8.13 6.222-.581 11.565 4.102 12.143 10.12l29.277 16.35c.57.318.922.92.922 1.575v66.254c0 .996-.802 1.803-1.794 1.803z" mask="url(#b)"/>
        </g>
        <g transform="translate(10.77 90.121)">
            <mask id="d" fill="#fff">
                <use xlink:href="#c"/>
            </mask>
            <path fill="#8C0E03" d="M126.69 4.497H2.213A1.798 1.798 0 0 1 .418 2.694c0-.996.803-1.802 1.795-1.802H126.69c.992 0 1.795.806 1.795 1.802s-.803 1.803-1.795 1.803" mask="url(#d)"/>
        </g>
        <g transform="translate(10.77 75.702)">
            <mask id="f" fill="#fff">
                <use xlink:href="#e"/>
            </mask>
            <path fill="#8C0E03" d="M126.69 4.497H2.213A1.798 1.798 0 0 1 .418 2.694c0-.996.803-1.802 1.795-1.802H126.69c.992 0 1.795.806 1.795 1.802s-.803 1.803-1.795 1.803" mask="url(#f)"/>
        </g>
        <g transform="translate(10.77 61.282)">
            <mask id="h" fill="#fff">
                <use xlink:href="#g"/>
            </mask>
            <path fill="#8C0E03" d="M126.69 4.497H2.213A1.798 1.798 0 0 1 .418 2.694c0-.996.803-1.802 1.795-1.802H126.69c.992 0 1.795.806 1.795 1.802s-.803 1.803-1.795 1.803" mask="url(#h)"/>
        </g>
        <path fill="#8C0E03" d="M38.324 93.936a1.798 1.798 0 0 1-1.795-1.802V78.845c0-.995.803-1.802 1.795-1.802.992 0 1.795.807 1.795 1.802v13.289c0 .996-.803 1.802-1.795 1.802M62.772 107.835a1.798 1.798 0 0 1-1.795-1.802V93.416c0-.996.803-1.802 1.795-1.802.992 0 1.795.806 1.795 1.802v12.617c0 .996-.803 1.802-1.795 1.802M62.772 80.198a1.798 1.798 0 0 1-1.795-1.802v-14.42c0-.996.803-1.802 1.795-1.802.992 0 1.795.806 1.795 1.803v14.419c0 .996-.803 1.802-1.795 1.802M62.772 49.965a1.798 1.798 0 0 1-1.795-1.803V35.478c0-.995.803-1.802 1.795-1.802.992 0 1.795.807 1.795 1.802v12.684c0 .997-.803 1.803-1.795 1.803M87.616 93.936a1.798 1.798 0 0 1-1.795-1.802V78.396c0-.996.803-1.802 1.795-1.802.992 0 1.795.806 1.795 1.802v13.738c0 .996-.803 1.802-1.795 1.802"/>
        <g transform="translate(10.77 46.863)">
            <mask id="j" fill="#fff">
                <use xlink:href="#i"/>
            </mask>
            <path fill="#8C0E03" d="M126.69 3.79H2.213A1.798 1.798 0 0 1 .418 1.988c0-.996.803-1.803 1.795-1.803H126.69c.992 0 1.795.807 1.795 1.803 0 .996-.803 1.802-1.795 1.802" mask="url(#j)"/>
        </g>
        <path fill="#8C0E03" d="M38.324 64.391a1.798 1.798 0 0 1-1.795-1.802V49.3c0-.996.803-1.802 1.795-1.802.992 0 1.795.806 1.795 1.802V62.59c0 .996-.803 1.802-1.795 1.802M87.616 64.391a1.798 1.798 0 0 1-1.795-1.802V48.85c0-.996.803-1.803 1.795-1.803.992 0 1.795.807 1.795 1.803v13.738c0 .996-.803 1.802-1.795 1.802M112.063 107.835a1.798 1.798 0 0 1-1.794-1.802V93.416c0-.996.802-1.802 1.794-1.802s1.795.806 1.795 1.802v12.617c0 .996-.803 1.802-1.795 1.802M112.063 78.817a1.798 1.798 0 0 1-1.794-1.803V63.977c0-.997.802-1.803 1.794-1.803s1.795.806 1.795 1.803v13.037c0 .996-.803 1.803-1.795 1.803M112.063 48.802A1.798 1.798 0 0 1 110.27 47V36.52c0-.996.802-1.803 1.794-1.803s1.795.807 1.795 1.802V47c0 .997-.803 1.803-1.795 1.803"/>
        <path fill="#8C0E03" d="M128.431 36.54h-89.1a1.798 1.798 0 0 1-1.796-1.803c0-.996.803-1.802 1.795-1.802h89.101c.992 0 1.795.806 1.795 1.802s-.803 1.802-1.795 1.802"/>
        <path fill="#8C0E03" d="M12.98 107.835c-.4 0-.804-.134-1.138-.41L.655 98.18A1.805 1.805 0 0 1 0 96.79V41.218c0-.7.404-1.336 1.035-1.633L46.27 18.342c.587-5.656 5.361-10.08 11.146-10.08.627 0 1.251.055 1.87.162C60.611 3.662 65.001.178 70.075.178c.993 0 1.796.806 1.796 1.802 0 .995-.803 1.803-1.795 1.803-3.938 0-7.27 3.088-7.585 7.03a1.797 1.797 0 0 1-2.416 1.545 7.559 7.559 0 0 0-2.66-.49c-4.2 0-7.618 3.431-7.618 7.649 0 .7-.403 1.336-1.035 1.633L3.59 42.366v53.572l10.532 8.703c.766.633.876 1.768.246 2.537a1.789 1.789 0 0 1-1.387.657"/>
        <path fill="#BC2F36" d="M26.477 141.049c.027 0 .043.027.043.085 0 .121-.07.324-.214.61-.127.248-.254.374-.382.374-.05 0-.157-.072-.32-.215a2.758 2.758 0 0 0-1.128-.48 282.214 282.214 0 0 0-.042 3.889v1.592c0 .285-.128.428-.383.428-.248 0-.362-.156-.342-.47l.023-.353c.014-.178.027-.452.042-.823l.054-4.285a4.002 4.002 0 0 0-1.575.46.355.355 0 0 1-.15.042c-.205 0-.308-.114-.308-.341 0-.292.195-.468.585-.524.575-.078 1.13-.117 1.671-.117.24 0 .638.032 1.192.096l.457.053c.362.044.51.064.448.064a.54.54 0 0 0 .18-.043.507.507 0 0 1 .149-.042"/>
        <path stroke="#C30D23" stroke-width=".25" d="M26.477 141.049c.027 0 .043.027.043.085 0 .121-.07.324-.214.61-.127.248-.254.374-.382.374-.05 0-.157-.072-.32-.215a2.758 2.758 0 0 0-1.128-.48 282.214 282.214 0 0 0-.042 3.889v1.592c0 .285-.128.428-.383.428-.248 0-.362-.156-.342-.47l.023-.353c.014-.178.027-.452.042-.823l.054-4.285a4.002 4.002 0 0 0-1.575.46.355.355 0 0 1-.15.042c-.205 0-.308-.114-.308-.341 0-.292.195-.468.585-.524.575-.078 1.13-.117 1.671-.117.24 0 .638.032 1.192.096l.457.053c.362.044.51.064.448.064a.54.54 0 0 0 .18-.043.507.507 0 0 1 .149-.042z"/>
        <path fill="#BC2F36" d="M32.224 146.776c.51 0 .897-.217 1.16-.652.22-.356.33-.808.33-1.357 0-.426-.107-.82-.319-1.175l-.118-.149a1.42 1.42 0 0 1-.287-.096 1.433 1.433 0 0 0-.724-.214c-.447 0-.802.189-1.064.565-.227.329-.341.728-.341 1.198 0 .577.153 1.055.458 1.43.24.3.542.45.905.45m.17-4.317c.447 0 .752.096.915.288a.679.679 0 0 1 .192.482v.01c.142.086.269.186.382.3.341.385.511.85.511 1.4 0 .698-.22 1.28-.659 1.752-.384.427-.873.64-1.47.64-.572 0-1.049-.228-1.424-.682-.377-.45-.565-1.062-.565-1.84 0-.655.195-1.213.585-1.676.384-.45.894-.674 1.534-.674"/>
        <path stroke="#C30D23" stroke-width=".25" d="M32.224 146.776c.51 0 .897-.217 1.16-.652.22-.356.33-.808.33-1.357 0-.426-.107-.82-.319-1.175l-.118-.149a1.42 1.42 0 0 1-.287-.096 1.433 1.433 0 0 0-.724-.214c-.447 0-.802.189-1.064.565-.227.329-.341.728-.341 1.198 0 .577.153 1.055.458 1.43.24.3.542.45.905.45zm.17-4.317c.447 0 .752.096.915.288a.679.679 0 0 1 .192.482v.01c.142.086.269.186.382.3.341.385.511.85.511 1.4 0 .698-.22 1.28-.659 1.752-.384.427-.873.64-1.47.64-.572 0-1.049-.228-1.424-.682-.377-.45-.565-1.062-.565-1.84 0-.655.195-1.213.585-1.676.384-.45.894-.674 1.534-.674z"/>
        <path fill="#BC2F36" d="M38.842 142.46c.199 0 .298.157.298.47v.416c.341-.591.824-.887 1.448-.887.553 0 .968.238 1.245.716.226.385.34.873.34 1.464-.015 1.012.019 1.606.096 1.784.022.05.075.122.16.215a.937.937 0 0 1 .128.139c0 .049-.09.152-.266.31-.171.163-.328.245-.47.245a.26.26 0 0 1-.233-.14c-.128-.17-.191-.437-.191-.801 0-.142.02-.43.063-.864.015-.15.022-.39.022-.718 0-.533-.05-.94-.15-1.218-.155-.44-.446-.66-.872-.66-.412 0-.762.208-1.053.629-.128.172-.216.426-.267.77v2.574c0 .286-.113.428-.34.428-.22 0-.33-.142-.33-.428v-4.189c0-.17.125-.256.372-.256"/>
        <path stroke="#C30D23" stroke-width=".25" d="M38.842 142.46c.199 0 .298.157.298.47v.416c.341-.591.824-.887 1.448-.887.553 0 .968.238 1.245.716.226.385.34.873.34 1.464-.015 1.012.019 1.606.096 1.784.022.05.075.122.16.215a.937.937 0 0 1 .128.139c0 .049-.09.152-.266.31-.171.163-.328.245-.47.245a.26.26 0 0 1-.233-.14c-.128-.17-.191-.437-.191-.801 0-.142.02-.43.063-.864.015-.15.022-.39.022-.718 0-.533-.05-.94-.15-1.218-.155-.44-.446-.66-.872-.66-.412 0-.762.208-1.053.629-.128.172-.216.426-.267.77v2.574c0 .286-.113.428-.34.428-.22 0-.33-.142-.33-.428v-4.189c0-.17.125-.256.372-.256z"/>
        <path fill="#BC2F36" d="M50.004 143.88c-.177-.248-.37-.424-.574-.524a1.372 1.372 0 0 0-.755-.223c-.484 0-.848.189-1.096.566-.206.32-.309.734-.309 1.24 0 .413.12.783.361 1.111.27.37.575.556.916.556.751 0 1.266-.407 1.542-1.219l-.085-1.507zm-1.372-1.421c.532 0 .975.154 1.33.46l-.01-.075c0-.257.155-.385.468-.385.177 0 .265.157.265.47v.674l.01.951c0 .086.005.334.012.748.014.342.02.658.02.951 0 .755-.219 1.36-.658 1.816-.49.52-1.154.781-1.99.781-.561 0-.926-.182-1.096-.545-.12-.264-.182-.468-.182-.61 0-.057.029-.085.086-.085.02 0 .064.017.127.053.404.249.915.375 1.533.375.482 0 .869-.176 1.16-.525.234-.292.37-.719.404-1.281-.1.156-.199.287-.298.394a1.744 1.744 0 0 1-1.31.567c-.453 0-.843-.168-1.17-.502-.46-.463-.691-1.047-.691-1.752 0-.663.163-1.226.49-1.688.36-.528.86-.792 1.5-.792z"/>
        <path stroke="#C30D23" stroke-width=".25" d="M50.004 143.88c-.177-.248-.37-.424-.574-.524a1.372 1.372 0 0 0-.755-.223c-.484 0-.848.189-1.096.566-.206.32-.309.734-.309 1.24 0 .413.12.783.361 1.111.27.37.575.556.916.556.751 0 1.266-.407 1.542-1.219l-.085-1.507zm-1.372-1.421c.532 0 .975.154 1.33.46l-.01-.075c0-.257.155-.385.468-.385.177 0 .265.157.265.47v.674l.01.951c0 .086.005.334.012.748.014.342.02.658.02.951 0 .755-.219 1.36-.658 1.816-.49.52-1.154.781-1.99.781-.561 0-.926-.182-1.096-.545-.12-.264-.182-.468-.182-.61 0-.057.029-.085.086-.085.02 0 .064.017.127.053.404.249.915.375 1.533.375.482 0 .869-.176 1.16-.525.234-.292.37-.719.404-1.281-.1.156-.199.287-.298.394a1.744 1.744 0 0 1-1.31.567c-.453 0-.843-.168-1.17-.502-.46-.463-.691-1.047-.691-1.752 0-.663.163-1.226.49-1.688.36-.528.86-.792 1.5-.792z"/>
        <path fill="#BC2F36" d="M56.847 142.46c.226 0 .34.127.34.384v4.018c0 .313-.1.47-.298.47-.305 0-.446-.185-.425-.555l.042-.653v-.843l-.021-1.955c0-.08-.004-.176-.011-.29-.006-.1-.01-.164-.01-.192 0-.257.127-.385.383-.385m0-1.753c.149 0 .274.05.374.15.09.1.137.221.137.364a.5.5 0 0 1-.148.363.53.53 0 0 1-.736 0 .494.494 0 0 1-.138-.363.53.53 0 0 1 .138-.375c.1-.092.224-.139.373-.139"/>
        <path stroke="#C30D23" stroke-width=".25" d="M56.847 142.46c.226 0 .34.127.34.384v4.018c0 .313-.1.47-.298.47-.305 0-.446-.185-.425-.555l.042-.653v-.843l-.021-1.955c0-.08-.004-.176-.011-.29-.006-.1-.01-.164-.01-.192 0-.257.127-.385.383-.385zm0-1.754c.149 0 .274.05.374.15.09.1.137.221.137.364a.5.5 0 0 1-.148.363.53.53 0 0 1-.736 0 .494.494 0 0 1-.138-.363.53.53 0 0 1 .138-.375c.1-.092.224-.139.373-.139z"/>
        <path fill="#BC2F36" d="M63.36 142.46c.198 0 .297.157.297.47v.416c.341-.591.824-.887 1.448-.887.553 0 .968.238 1.245.716.226.385.34.873.34 1.464-.015 1.012.019 1.606.096 1.784.022.05.075.122.16.215a.937.937 0 0 1 .128.139c0 .049-.09.152-.266.31-.171.163-.328.245-.47.245a.26.26 0 0 1-.232-.14c-.128-.17-.192-.437-.192-.801 0-.142.02-.43.064-.864.014-.15.021-.39.021-.718 0-.533-.05-.94-.15-1.218-.155-.44-.446-.66-.872-.66-.411 0-.762.208-1.053.629-.128.172-.216.426-.267.77v2.574c0 .286-.113.428-.34.428-.22 0-.33-.142-.33-.428v-4.189c0-.17.125-.256.372-.256"/>
        <path stroke="#C30D23" stroke-width=".25" d="M63.36 142.46c.198 0 .297.157.297.47v.416c.341-.591.824-.887 1.448-.887.553 0 .968.238 1.245.716.226.385.34.873.34 1.464-.015 1.012.019 1.606.096 1.784.022.05.075.122.16.215a.937.937 0 0 1 .128.139c0 .049-.09.152-.266.31-.171.163-.328.245-.47.245a.26.26 0 0 1-.232-.14c-.128-.17-.192-.437-.192-.801 0-.142.02-.43.064-.864.014-.15.021-.39.021-.718 0-.533-.05-.94-.15-1.218-.155-.44-.446-.66-.872-.66-.411 0-.762.208-1.053.629-.128.172-.216.426-.267.77v2.574c0 .286-.113.428-.34.428-.22 0-.33-.142-.33-.428v-4.189c0-.17.125-.256.372-.256z"/>
        <path fill="#BC2F36" d="M79.406 140.835c.198 0 .39.341.574 1.026l.298 1.101c.32 1.197.682 2.34 1.087 3.43a31.968 31.968 0 0 0 1.318-3.869c.141-.513.228-.9.256-1.164.035-.348.149-.524.34-.524.135 0 .249.05.34.15.086.084.13.191.13.32 0 .156-.185.752-.555 1.784-.46 1.311-.925 2.42-1.394 3.324a1.705 1.705 0 0 0-.17.492c-.05.284-.166.426-.352.426-.07 0-.13-.062-.18-.191-.057-.085-.138-.274-.244-.567-.235-.633-.692-1.97-1.374-4.008-.184-.54-.322-.886-.414-1.035a.506.506 0 0 1-.085-.268c0-.285.141-.427.425-.427"/>
        <path stroke="#C30D23" stroke-width=".25" d="M79.406 140.835c.198 0 .39.341.574 1.026l.298 1.101c.32 1.197.682 2.34 1.087 3.43a31.968 31.968 0 0 0 1.318-3.869c.141-.513.228-.9.256-1.164.035-.348.149-.524.34-.524.135 0 .249.05.34.15.086.084.13.191.13.32 0 .156-.185.752-.555 1.784-.46 1.311-.925 2.42-1.394 3.324a1.705 1.705 0 0 0-.17.492c-.05.284-.166.426-.352.426-.07 0-.13-.062-.18-.191-.057-.085-.138-.274-.244-.567-.235-.633-.692-1.97-1.374-4.008-.184-.54-.322-.886-.414-1.035a.506.506 0 0 1-.085-.268c0-.285.141-.427.425-.427z"/>
        <path fill="#BC2F36" d="M89.537 142.46c.226 0 .34.127.34.384v4.018c0 .313-.1.47-.298.47-.305 0-.447-.185-.425-.555l.042-.653v-.843l-.022-1.955c0-.08-.003-.176-.01-.29-.006-.1-.01-.164-.01-.192 0-.257.127-.385.383-.385m0-1.753c.148 0 .274.05.373.15.091.1.138.221.138.364a.5.5 0 0 1-.148.363.53.53 0 0 1-.736 0 .494.494 0 0 1-.138-.363.53.53 0 0 1 .138-.375c.099-.092.223-.139.373-.139"/>
        <path stroke="#C30D23" stroke-width=".25" d="M89.537 142.46c.226 0 .34.127.34.384v4.018c0 .313-.1.47-.298.47-.305 0-.447-.185-.425-.555l.042-.653v-.843l-.022-1.955c0-.08-.003-.176-.01-.29-.006-.1-.01-.164-.01-.192 0-.257.127-.385.383-.385zm0-1.754c.148 0 .274.05.373.15.091.1.138.221.138.364a.5.5 0 0 1-.148.363.53.53 0 0 1-.736 0 .494.494 0 0 1-.138-.363.53.53 0 0 1 .138-.375c.099-.092.223-.139.373-.139z"/>
        <path fill="#BC2F36" d="M97.752 140.835c.227 0 .34.128.34.385 0 .036-.003.1-.01.192-.006.085-.01.156-.01.214-.015.37-.022.994-.022 1.87v1.357c0 .541.007.998.023 1.367.013.37.02.598.02.685 0 .284-.114.426-.341.426-.255 0-.383-.142-.383-.426v-3.709c0-.22-.007-.551-.022-.993a31.58 31.58 0 0 1-.02-.983c0-.257.141-.385.425-.385"/>
        <path stroke="#C30D23" stroke-width=".25" d="M97.752 140.835c.227 0 .34.128.34.385 0 .036-.003.1-.01.192-.006.085-.01.156-.01.214-.015.37-.022.994-.022 1.87v1.357c0 .541.007.998.023 1.367.013.37.02.598.02.685 0 .284-.114.426-.341.426-.255 0-.383-.142-.383-.426v-3.709c0-.22-.007-.551-.022-.993a31.58 31.58 0 0 1-.02-.983c0-.257.141-.385.425-.385z"/>
        <path fill="#BC2F36" d="M105.925 140.835c.227 0 .34.128.34.385 0 .036-.003.1-.01.192-.006.085-.01.156-.01.214-.015.37-.022.994-.022 1.87v1.357c0 .541.007.998.022 1.367.013.37.02.598.02.685 0 .284-.113.426-.34.426-.255 0-.383-.142-.383-.426v-3.709c0-.22-.007-.551-.022-.993a31.58 31.58 0 0 1-.02-.983c0-.257.141-.385.425-.385"/>
        <path stroke="#C30D23" stroke-width=".25" d="M105.925 140.835c.227 0 .34.128.34.385 0 .036-.003.1-.01.192-.006.085-.01.156-.01.214-.015.37-.022.994-.022 1.87v1.357c0 .541.007.998.022 1.367.013.37.02.598.02.685 0 .284-.113.426-.34.426-.255 0-.383-.142-.383-.426v-3.709c0-.22-.007-.551-.022-.993a31.58 31.58 0 0 1-.02-.983c0-.257.141-.385.425-.385z"/>
        <path fill="#BC2F36" d="M113.864 143.133c-.49 0-.852.21-1.086.63-.185.335-.277.77-.277 1.303 0 .442.095.823.288 1.144.242.377.574.566 1 .566.398 0 .709-.157.937-.47.248-.355.371-.823.371-1.4v-1.122c-.347-.434-.758-.651-1.233-.651zm1.191-.278c.008-.264.134-.396.383-.396.228 0 .341.114.341.342 0 .036-.003.1-.01.192-.008.122-.011.221-.011.3l-.022.79c-.02.87.022 1.489.128 1.86.058.185.145.318.267.396.105.084.158.145.158.18 0 .122-.049.275-.148.46-.136.234-.27.352-.405.352-.262 0-.44-.303-.532-.908-.326.605-.798.908-1.415.908-.61 0-1.097-.214-1.457-.64-.341-.4-.511-.954-.511-1.668 0-.683.166-1.264.5-1.741.382-.548.896-.823 1.543-.823.319 0 .648.09.99.268l.201.128z"/>
        <path stroke="#C30D23" stroke-width=".25" d="M113.864 143.133c-.49 0-.852.21-1.086.63-.185.335-.277.77-.277 1.303 0 .442.095.823.288 1.144.242.377.574.566 1 .566.398 0 .709-.157.937-.47.248-.355.371-.823.371-1.4v-1.122c-.347-.434-.758-.651-1.233-.651zm1.191-.278c.008-.264.134-.396.383-.396.228 0 .341.114.341.342 0 .036-.003.1-.01.192-.008.122-.011.221-.011.3l-.022.79c-.02.87.022 1.489.128 1.86.058.185.145.318.267.396.105.084.158.145.158.18 0 .122-.049.275-.148.46-.136.234-.27.352-.405.352-.262 0-.44-.303-.532-.908-.326.605-.798.908-1.415.908-.61 0-1.097-.214-1.457-.64-.341-.4-.511-.954-.511-1.668 0-.683.166-1.264.5-1.741.382-.548.896-.823 1.543-.823.319 0 .648.09.99.268l.201.128z"/>
        <path fill="#BC2F36" d="M123.557 143.88c-.178-.248-.37-.424-.575-.524a1.372 1.372 0 0 0-.755-.223c-.483 0-.848.189-1.096.566-.206.32-.309.734-.309 1.24 0 .413.12.783.362 1.111.269.37.574.556.915.556.752 0 1.266-.407 1.543-1.219l-.085-1.507zm-1.373-1.421c.533 0 .975.154 1.33.46l-.01-.075c0-.257.155-.385.468-.385.177 0 .265.157.265.47v.674l.011.951c0 .086.004.334.011.748.014.342.02.658.02.951 0 .755-.219 1.36-.658 1.816-.49.52-1.153.781-1.99.781-.56 0-.926-.182-1.096-.545-.12-.264-.182-.468-.182-.61 0-.057.03-.085.086-.085.02 0 .064.017.127.053.405.249.916.375 1.533.375.482 0 .869-.176 1.16-.525.234-.292.37-.719.404-1.281-.1.156-.199.287-.298.394a1.744 1.744 0 0 1-1.309.567c-.453 0-.844-.168-1.17-.502-.46-.463-.692-1.047-.692-1.752 0-.663.163-1.226.49-1.688.361-.528.861-.792 1.5-.792z"/>
        <path stroke="#C30D23" stroke-width=".25" d="M123.557 143.88c-.178-.248-.37-.424-.575-.524a1.372 1.372 0 0 0-.755-.223c-.483 0-.848.189-1.096.566-.206.32-.309.734-.309 1.24 0 .413.12.783.362 1.111.269.37.574.556.915.556.752 0 1.266-.407 1.543-1.219l-.085-1.507zm-1.373-1.421c.533 0 .975.154 1.33.46l-.01-.075c0-.257.155-.385.468-.385.177 0 .265.157.265.47v.674l.011.951c0 .086.004.334.011.748.014.342.02.658.02.951 0 .755-.219 1.36-.658 1.816-.49.52-1.153.781-1.99.781-.56 0-.926-.182-1.096-.545-.12-.264-.182-.468-.182-.61 0-.057.03-.085.086-.085.02 0 .064.017.127.053.405.249.916.375 1.533.375.482 0 .869-.176 1.16-.525.234-.292.37-.719.404-1.281-.1.156-.199.287-.298.394a1.744 1.744 0 0 1-1.309.567c-.453 0-.844-.168-1.17-.502-.46-.463-.692-1.047-.692-1.752 0-.663.163-1.226.49-1.688.361-.528.861-.792 1.5-.792z"/>
        <path fill="#BC2F36" d="M130.293 143.058c-.411 0-.742.214-.99.64a1.82 1.82 0 0 0-.266.685h2.363c0-.37-.114-.702-.341-.995-.184-.22-.44-.33-.766-.33zm-1.32 1.88v.033c0 .484.11.904.33 1.261.178.306.422.458.734.458.476 0 .908-.092 1.298-.277.383-.184.672-.384.863-.599.042-.07.089-.107.138-.107.064 0 .096.072.096.214 0 .564-.185.934-.553 1.113a3.166 3.166 0 0 1-1.373.298c-.717 0-1.26-.24-1.628-.716-.327-.42-.49-1.009-.49-1.763 0-.626.17-1.17.511-1.624.376-.514.869-.77 1.48-.77.56 0 1.01.207 1.35.62.32.4.48.862.48 1.39 0 .356-.157.522-.47.502l-.274-.011c-.37-.015-.516-.022-.438-.022h-2.054z"/>
        <path stroke="#C30D23" stroke-width=".25" d="M130.293 143.058c-.411 0-.742.214-.99.64a1.82 1.82 0 0 0-.266.685h2.363c0-.37-.114-.702-.341-.995-.184-.22-.44-.33-.766-.33zm-1.32 1.88v.033c0 .484.11.904.33 1.261.178.306.422.458.734.458.476 0 .908-.092 1.298-.277.383-.184.672-.384.863-.599.042-.07.089-.107.138-.107.064 0 .096.072.096.214 0 .564-.185.934-.553 1.113a3.166 3.166 0 0 1-1.373.298c-.717 0-1.26-.24-1.628-.716-.327-.42-.49-1.009-.49-1.763 0-.626.17-1.17.511-1.624.376-.514.869-.77 1.48-.77.56 0 1.01.207 1.35.62.32.4.48.862.48 1.39 0 .356-.157.522-.47.502l-.274-.011c-.37-.015-.516-.022-.438-.022h-2.054z"/>
        <path fill="#8C0E03" d="M25.83 125.747l2.223-.05h2.223l.574-2.584a41.524 41.524 0 0 0-5.27-.076l.25 2.71zm-3.222-8.052l.724.1c1.315 0 2.548-.008 3.696-.026l-.025-.802c0-.736.367-1.103 1.1-1.103.8 0 1.199.4 1.199 1.204l-.05.701c2.614-.015 4.53-.04 5.745-.074.332 0 .5.225.5.676 0 .302-.133.587-.4.854-.333.368-.7.551-1.1.551-1.164-.133-2.78-.216-4.846-.25l-.1 1.882c1.084.015 2.283.05 3.598.1 1.466.05 2.715.074 3.748.074.915 0 2.015-.132 3.296-.401.2 0 .3.277.3.829 0 .484-.4 1.01-1.199 1.58-.567.418-1.066.627-1.499.627-.45 0-1.007-.118-1.673-.35a14.78 14.78 0 0 0-2.597-.553l-.875 2.382h.848l1.399-.1c.4 0 .6.276.6.827 0 .319-.142.595-.424.828a1.021 1.021 0 0 1-.775.352c-1.299-.05-2.83-.075-4.597-.075a72.46 72.46 0 0 0-.124 1.755c1.915-.05 3.556-.074 4.92-.074l2.299-.302c.467 0 .7.21.7.627 0 .501-.233 1.012-.7 1.531-.633.635-1.3.953-1.998.953-.8-.217-1.765-.41-2.898-.578a47.153 47.153 0 0 0-2.398-.174c-.016.334-.024.668-.024 1.003-.034 1.538-.133 2.44-.3 2.709-.15.234-.342.352-.575.352-.6 0-.9-.546-.9-1.632-.015-.835-.033-1.664-.05-2.483a36.588 36.588 0 0 0-3.62.201c-.768.083-1.674.251-2.723.501-.8 0-1.2-.368-1.2-1.103 0-.302.216-.652.65-1.054.416-.367.8-.551 1.15-.551.314 0 .705.033 1.172.1.7.067 1.44.1 2.224.1.8-.033 1.564-.058 2.298-.075a66.079 66.079 0 0 0-.076-1.781 71.94 71.94 0 0 0-1.872.074 25.96 25.96 0 0 0-2.848.277c-.8 0-1.199-.3-1.199-.903 0-.301.158-.635.474-1.003.233-.268.54-.401.925-.401.5.133.932.2 1.3.2h.174l-.65-2.684c-.317 0-.624.008-.924.025-.999.067-2.531.319-4.596.752-.733 0-1.1-.26-1.1-.777 0-.335.15-.619.45-.852.367-.386.85-.578 1.45-.578 3.662-.184 6.519-.284 8.567-.302l-.075-1.88c-.7-.017-1.432-.025-2.198-.025-.633 0-1.498.175-2.598.527-.734 0-1.098-.31-1.098-.929 0-.334.157-.652.473-.954.267-.283.576-.425.925-.425zM68.57 132.62c.249-.101.373-.535.373-1.305.017-.167.035-.334.05-.501-1.165.017-2.24.033-3.222.05v1.555a22.79 22.79 0 0 1 2.799.2zm-2.799-5.192v1.755l2.499.025c.282 0 .54.026.774.076.017-.519.025-1.079.025-1.68 0-.067-.259-.11-.774-.126-.6-.035-1.44-.05-2.524-.05zm1.399-3.838c.267-.034.4-.176.4-.427.067-.368.1-.794.1-1.28 0-.082-.191-.133-.574-.15-.649-.033-1.757-.05-3.323-.05-.6 0-1.149.008-1.649.025-.232.018-.35.118-.35.302-.05.318-.074.644-.074.977 0 .402.192.603.575.603.683-.066 1.373-.101 2.073-.101 1.082 0 2.023.035 2.822.1zm-3.097 8.83l-.05-1.506a55.401 55.401 0 0 0-3.447.25v.753c0 .401.166.602.5.602.982-.05 1.981-.083 2.997-.1zm-3.497-3.286a.823.823 0 0 1 .2-.026l3.173.05-.05-1.73h-.15c-.949 0-1.825.008-2.624.024-.365.018-.55.1-.55.25v1.432zm.4-9.057c.149 0 .39.068.724.201 2.315 0 4.239.035 5.77.1.432-.134.733-.2.9-.2.6 0 .899.4.899 1.203-.133.754-.2 1.666-.2 2.735 0 .737-.324 1.104-.974 1.104-1-.15-2.215-.226-3.647-.226-.833 0-2.057.109-3.673.326-.532 0-.799-.368-.799-1.103.134-.401.2-.878.2-1.431 0-.401-.066-1.068-.2-2.007 0-.466.334-.702 1-.702zm-.6-2.708c.216 0 .466.034.749.1.467.067.94.1 1.425.1 2.581-.134 4.653-.2 6.22-.2l1.798-.2c.4 0 .6.175.6.526 0 .369-.192.752-.576 1.153-.516.486-1.056.728-1.622.728a12.231 12.231 0 0 0-1.923-.35c-.967-.1-1.808-.15-2.524-.15-1.083 0-2.04.05-2.873.15-.517.05-1.14.166-1.874.35-.6 0-.898-.3-.898-.902 0-.236.174-.52.524-.853.35-.302.675-.452.974-.452zm-.699 8.227c.183 0 .483.1.899.3 3.297 0 6.028.036 8.194.102.516-.2.882-.302 1.098-.302.6 0 .9.436.9 1.305-.134 1.705-.2 3.746-.2 6.12 0 .804-.334 1.205-.999 1.205-1.217-.2-2.707-.301-4.472-.301-1.249 0-3.088.1-5.52.301-.6 0-.9-.369-.9-1.104.134-.418.2-.912.2-1.48 0-1.087-.066-2.86-.2-5.318 0-.551.333-.828 1-.828zm-8.393-8.126l4.697.1c.448 0 .856.066 1.223.2.317.101.475.302.475.602 0 .536-.2.803-.601.803-2.946 0-5.045.135-6.293.401-.6 0-.9-.3-.9-.902 0-.218.116-.46.35-.728.265-.319.615-.476 1.05-.476zm-.8 3.31l5.996.125c.465 0 .898.068 1.298.201.334.1.5.326.5.677 0 .537-.233.802-.7.802-.749 0-1.464.01-2.146.027.032.133.049.3.049.5v1.43c.3.15 1.056.77 2.273 1.857.217.2.324.401.324.602 0 .401-.166.602-.5.602-.15 0-.841-.317-2.072-.954.032 2.41.09 4.198.174 5.369 0 1.806-.4 2.71-1.199 2.71s-1.199-.703-1.199-2.108c.234-2.475.351-4.139.351-4.992 0-.25-.01-.51-.026-.778a16.722 16.722 0 0 1-1.4 2.158c-.832 1.02-1.472 1.53-1.922 1.53-.566 0-1.116-.25-1.649-.753-.499-.401-.749-.786-.749-1.153 0-.185.125-.285.375-.3 1.048-.036 2.089-.437 3.123-1.205.799-.586 1.505-1.346 2.122-2.284a59.736 59.736 0 0 0-.124-1.354c0-.302.024-.567.074-.803-1.515.084-2.707.226-3.572.427-.6 0-.898-.334-.898-1.004 0-.25.123-.527.373-.828.284-.334.658-.502 1.125-.502zM97.644 128.631c.116 0 .25.025.4.075.2 0 .3-.092.3-.275 0-1.087.033-1.865.1-2.333 0-.134-.1-.2-.3-.2-.333-.068-.8-.1-1.4-.1-.4 0-.6.066-.6.2a12.7 12.7 0 0 1-.199 2.308c0 .266.168.4.5.4.35-.05.75-.075 1.2-.075m-2.798-4.415c.216 0 .432.034.65.1.216.05.53.077.948.077h1.05c.232 0 .515.033.848.1.317 0 .717-.059 1.2-.177.666 0 1 .335 1 1.004a.542.542 0 0 1-.077.151c-.1.15-.165.427-.2.828a11.36 11.36 0 0 0-.123 1.73c0 .302.032.695.099 1.179 0 .67-.3 1.003-.9 1.003-.632-.2-1.199-.301-1.698-.301-1.017 0-1.665.043-1.948.126-.233.034-.517.125-.85.275-.599 0-.9-.3-.9-.902.2-.87.301-1.64.301-2.307 0-.552-.1-1.221-.3-2.007 0-.587.3-.879.9-.879m-.4-3.21l.6.1c2.73 0 4.562-.033 5.495-.1.266 0 .4.192.4.577 0 .268-.117.51-.35.727-.283.318-.6.477-.95.477-.666-.134-1.73-.201-3.197-.201-.567 0-1.332.134-2.298.401-.6 0-.899-.258-.899-.777 0-.302.126-.585.375-.853.25-.233.524-.351.824-.351m-5.996 7.2c.634.484 1.266.786 1.899.901.134.05.2.151.2.302 0 .2-.2.436-.6.701-.299.201-.633.302-.999.302-.15 0-.283-.133-.4-.401-.132-.318-.265-.845-.4-1.58 0-.15.1-.225.3-.225m-4.095.325c.133 0 .2.092.2.276 0 .1-.026.244-.075.426-.151.636-.317 1.145-.5 1.53-.118.235-.224.35-.325.35-.499 0-.941-.15-1.324-.45-.45-.368-.674-.686-.674-.954 0-.166.066-.265.2-.3.433-.05.764-.117.999-.201.365-.1.865-.326 1.5-.677m-.8-6.522l.699.1c2.613 0 4.38-.033 5.295-.1.266 0 .4.192.4.577 0 .268-.125.536-.375.804-.316.334-.658.5-1.025.5a7.126 7.126 0 0 0-1.1-.15l-.023 2.031a52.491 52.491 0 0 0 2.322-.074c.267 0 .4.208.4.627 0 .268-.124.518-.374.752-.316.351-.659.528-1.025.528-.35-.05-.79-.093-1.323-.126l-.05 3.812c.9-.133 1.623-.226 2.173-.276.333 0 .5.21.5.627v.125c.35-.401.633-.986.848-1.755.3-1.02.45-3.135.45-6.346 0-1.621-.1-3.386-.3-5.293 0-.383.334-.577 1-.577.466 0 .783.084.949.25.3-.05.65-.074 1.05-.074 2.397 0 4.728.033 6.993.1.283 0 .75-.058 1.4-.176.664 0 .998.226.998.678 0 .352-.05.777-.15 1.278-.3 1.723-.45 3.705-.45 5.947 0 1.454.026 2.792.075 4.012.235 1.54.35 2.777.35 3.713 0 .668-.374 1.003-1.123 1.003-.317 0-.55-.092-.7-.276-.2-.285-.3-.594-.3-.929 0-2.523.033-6.964.1-13.319 0-.417-.233-.627-.699-.627-3.564 0-5.729.06-6.495.176-.367.067-.673.109-.923.126v7.098c0 1.522-.067 2.8-.2 3.838-.134 1.12-.368 2.048-.7 2.785-.3.618-.558.928-.774.928-.383 0-.833-.184-1.35-.553-.565-.452-.85-.793-.85-1.027 0-.118.018-.218.05-.302a68.18 68.18 0 0 0-6.643 1.78c-.733 0-1.098-.266-1.098-.802 0-.467.099-.835.299-1.104.1-.116.316-.208.65-.275 1.131-.183 2.139-.351 3.02-.501l-.075-4.115h-.099c-.598 0-1.432.126-2.497.378-.667 0-1-.268-1-.803 0-.302.142-.602.426-.904.265-.268.557-.401.874-.401l.7.1h1.547l-.025-2.083c-.566.035-1.273.168-2.122.402-.667 0-1-.276-1-.827 0-.302.142-.602.425-.904.266-.25.558-.376.875-.376m2.996-5.217c.534 0 .8.226.8.677v.25c.2.05.433.169.698.352l1.8 1.304c.2.268.3.536.3.803 0 .485-.2.727-.6.727-.283 0-.583-.108-.9-.326l-2.098-1.103a1.054 1.054 0 0 1-.2-.276 20.064 20.064 0 0 1-2.922 2.508c-.549.385-1.008.578-1.373.578-.417 0-.842-.186-1.275-.552-.415-.335-.623-.686-.623-1.054 0-.301.24-.468.723-.502a8.28 8.28 0 0 0 2.698-1.053c.882-.502 1.707-1.187 2.472-2.057.235-.184.4-.276.5-.276M127.02 121.257c.882-.05 1.715-.084 2.497-.1l.2-1.68h-.774c-.734 0-1.44.015-2.123.05l.2 1.73zm-1.3 4.063h4.796c.151 0 .31.01.476.025.016-.184.025-.334.025-.452 0-.133-.1-.2-.3-.2-1.017-.066-2.516-.1-4.496-.1-.333 0-.5.067-.5.2v.527zm2.798 2.784c.633 0 1.332.035 2.099.101.2 0 .3-.066.3-.2V126.6c-2.382.033-4.139.175-5.27.426-.05.317-.093.61-.126.877 0 .201.133.302.4.302a29.9 29.9 0 0 1 2.597-.1zm-.299-11.838c.866 0 1.298.366 1.298 1.103-.099.217-.174.418-.225.602h2.824l1.2-.076c.332 0 .498.226.498.678a.861.861 0 0 1-.35.703c-.183.2-.399.3-.649.3-.367-.017-.767-.033-1.199-.049l-.45 1.605c.833-.017 1.582-.026 2.249-.026l1.699-.2c.332 0 .499.159.499.476 0 .351-.175.702-.526 1.053-.448.452-.94.678-1.473.678-.65-.167-1.423-.292-2.323-.377a35.919 35.919 0 0 0-3.048-.15c-1.248 0-2.34.05-3.271.15-.6.05-1.317.176-2.148.377-.6 0-.9-.277-.9-.828 0-.233.15-.493.45-.778.316-.268.6-.401.85-.401.265 0 .58.026.948.076.4.05.808.084 1.224.1l-.448-1.605a7.597 7.597 0 0 0-1.325.225c-.667 0-1-.275-1-.827 0-.268.134-.551.4-.853.2-.217.466-.327.8-.327a4.1 4.1 0 0 0 1.098.177l2.398-.076a5.702 5.702 0 0 0-.299-.526c0-.803.4-1.204 1.2-1.204zm-8.094 11.062c.6.35 1.2.575 1.799.676.2.068.3.167.3.3 0 .252-.233.553-.7.904-.383.285-.782.427-1.199.427-.133 0-.241-.142-.324-.427-.084-.317-.176-.853-.275-1.605 0-.184.134-.275.4-.275zm-6.493 1.103c.532.066.932.1 1.197.1.3 0 .667-.31 1.1-.928.2 0 .3.135.3.401 0 .3-.174.853-.525 1.656-.317.835-.608 1.253-.875 1.253-.383 0-.715-.174-.998-.526-.333-.401-.499-.894-.499-1.48 0-.316.1-.476.3-.476zm4.295-12.165c.534 0 .8.233.8.702 0 .084-.008.15-.026.2.201 0 .442.134.724.402l2.299 1.706c.2.267.3.535.3.802 0 .402-.2.603-.6.603-.25 0-.515-.101-.8-.302l-2.497-1.58a1.014 1.014 0 0 1-.225-.251 19.558 19.558 0 0 1-2.673 3.16c.184-.083.384-.125.6-.125l3.996.1c.467 0 .876.067 1.225.2.315.1.474.3.474.602 0 .536-.2.803-.6.803-.7 0-1.34.008-1.922.025l-.05 1.882 1.373.025c.45 0 .867.06 1.25.176.299.1.45.3.45.602 0 .536-.2.802-.6.802-.916 0-1.75.009-2.499.026l-.074 3.913a46.477 46.477 0 0 1 2.872-.327c.334 0 .5.201.5.602 0 .402-.159.661-.475.779l.475.05a4.67 4.67 0 0 0 1.624-.277c.632-.183 1.107-.425 1.423-.727.383-.335.6-.737.65-1.204 0-.084.008-.167.026-.251-.05 0-.094.01-.126.025-.334.034-.733.11-1.199.226-.534 0-.8-.242-.8-.728.134-.953.2-1.788.2-2.508 0-.668-.066-1.47-.2-2.408 0-.518.266-.777.8-.777.182 0 .375.024.574.074.184.067.458.1.825.1h2.722c.616 0 1.342.035 2.173.1.267 0 .6-.065 1-.2.6 0 .9.31.9.929a.538.538 0 0 1-.076.15c-.1.168-.175.476-.224.928-.068.586-.1 1.222-.1 1.907 0 .367.032.87.1 1.504 0 .62-.268.929-.8.929-.483-.084-.95-.159-1.4-.226v.226c0 .435-.099.995-.298 1.68 0 .25.074.393.223.428.267.066.959.1 2.075.1 1.364 0 2.563-.034 3.597-.1.2 0 .3.192.3.575 0 .385-.185.82-.55 1.305-.416.535-.8.803-1.149.803-.2 0-1.974-.277-5.32-.827-.517-.1-.775-.428-.775-.98.067-.87.1-1.529.1-1.98 0-.419-.033-.862-.1-1.33h-.925a.942.942 0 0 1 .025.226c-.217 1.17-.524 2.04-.924 2.609-.35.585-.883 1.12-1.598 1.605-.7.45-1.258.677-1.674.677-.666 0-1.308-.319-1.923-.953-.517-.484-.776-.936-.776-1.356v-.1a89.634 89.634 0 0 0-6.692 1.606c-.717 0-1.076-.26-1.076-.777 0-.486.092-.852.277-1.103.114-.15.356-.26.723-.327a167.98 167.98 0 0 1 3.148-.426l-.026-4.064c-1.1.067-1.982.16-2.646.276-.6 0-.9-.292-.9-.878 0-.235.116-.485.35-.753a1.352 1.352 0 0 1 1.047-.477l2.124.025-.025-1.68a12.66 12.66 0 0 0-1.599.25c-.599 0-.898-.3-.898-.903 0-.15.05-.308.15-.476-.434.384-.817.577-1.15.577-.383 0-.783-.166-1.198-.503-.4-.332-.6-.667-.6-1.002 0-.3.2-.459.6-.477a7.664 7.664 0 0 0 2.796-1.53c.9-.701 1.733-1.672 2.499-2.909.166-.134.299-.2.4-.2z"/>
    </g>
</svg>
