<?xml version="1.0" encoding="UTF-8"?>
<svg width="140px" height="39px" viewBox="0 0 140 39" version="1.1" xmlns="http://www.w3.org/2000/svg" xmlns:xlink="http://www.w3.org/1999/xlink">
    <!-- Generator: sketchtool 46.2 (44496) - http://www.bohemiancoding.com/sketch -->
    <title>B4E18140-A82F-4776-AF0C-4A795D2A7B87</title>
    <desc>Created with sketchtool.</desc>
    <defs>
        <polygon id="path-1" points="0.691416667 37.3404255 46.7689167 37.3404255 46.7689167 0.15533617 0.691416667 0.15533617"></polygon>
        <polygon id="path-3" points="17.6666667 12.846683 17.6666667 0.306108511 0.549416667 0.306108511 0.549416667 12.846683"></polygon>
    </defs>
    <g id="1140" stroke="none" stroke-width="1" fill="none" fill-rule="evenodd">
        <g id="320_首頁" transform="translate(-90.000000, -40.000000)">
            <g id="Page-1-Copy-5" transform="translate(90.000000, 40.000000)">
                <polygon id="Fill-1" fill="#BC2F36" points="23 39 41 39 41 34 23 34"></polygon>
                <polygon id="Fill-2" fill="#BC2F36" points="5 34 14 34 14 29 5 29"></polygon>
                <polygon id="Fill-3" fill="#BC2F36" points="40 28 49 28 49 23 40 23"></polygon>
                <polygon id="Fill-4" fill="#BC2F36" points="14 23 31 23 31 18 14 18"></polygon>
                <g id="Group-101">
                    <g id="Group-7" transform="translate(3.333333, 1.659574)">
                        <mask id="mask-2" fill="white">
                            <use xlink:href="#path-1"></use>
                        </mask>
                        <g id="Clip-6"></g>
                        <path d="M1.98308333,36.0544213 L45.47725,36.0544213 L45.47725,13.4394 L34.96225,7.61678298 C34.75725,7.50310213 34.6305833,7.28818723 34.6305833,7.05418723 C34.6305833,5.32325106 33.00225,3.94331489 31.18975,4.41878298 C31.0089167,4.46691064 30.81475,4.43371915 30.65975,4.32750638 C30.50475,4.22129362 30.4030833,4.0536766 30.3830833,3.86780426 C30.22975,2.48454894 29.05975,1.44150638 27.65975,1.44150638 C26.2430833,1.44150638 25.04475,2.54263404 24.9314167,3.9491234 C24.9155833,4.14993191 24.8055833,4.33165532 24.63475,4.44035745 C24.4639167,4.54822979 24.2514167,4.57063404 24.0614167,4.50010213 C23.74975,4.38393191 23.42725,4.32501702 23.1055833,4.32501702 C21.5939167,4.32501702 20.36475,5.54978298 20.36475,7.05418723 C20.36475,7.30395319 20.21975,7.52965532 19.9930833,7.63586809 L1.98308333,16.0839319 L1.98308333,36.0544213 Z M46.1230833,37.3405915 L1.33808333,37.3405915 C0.980583333,37.3405915 0.691416667,37.0526553 0.691416667,36.6975064 L0.691416667,15.6756766 C0.691416667,15.4275702 0.836416667,15.2010383 1.06225,15.0948255 L19.0939167,6.63680426 C19.30475,4.61793191 21.0239167,3.03884681 23.1055833,3.03884681 C23.3305833,3.03884681 23.5555833,3.05793191 23.77725,3.09693191 C24.25475,1.39835745 25.83475,0.15533617 27.65975,0.15533617 C29.4855833,0.15533617 31.04725,1.3626766 31.53475,3.05544255 C33.77225,2.84799574 35.69475,4.51918723 35.9030833,6.66584681 L46.43725,12.4984213 C46.64225,12.6121021 46.7689167,12.827017 46.7689167,13.061017 L46.7689167,36.6975064 C46.7689167,37.0526553 46.47975,37.3405915 46.1230833,37.3405915 L46.1230833,37.3405915 Z" id="Fill-5" fill="#8C0E03" mask="url(#mask-2)"></path>
                    </g>
                    <path d="M49.4561667,34.2846511 L4.67116667,34.2846511 C4.31366667,34.2846511 4.0245,33.9967149 4.0245,33.641566 C4.0245,33.286417 4.31366667,32.9984809 4.67116667,32.9984809 L49.4561667,32.9984809 C49.8128333,32.9984809 50.102,33.286417 50.102,33.641566 C50.102,33.9967149 49.8128333,34.2846511 49.4561667,34.2846511" id="Fill-8" fill="#8C0E03"></path>
                    <path d="M49.4561667,29.1402191 L4.67116667,29.1402191 C4.31366667,29.1402191 4.0245,28.852283 4.0245,28.497134 C4.0245,28.1419851 4.31366667,27.8540489 4.67116667,27.8540489 L49.4561667,27.8540489 C49.8128333,27.8540489 50.102,28.1419851 50.102,28.497134 C50.102,28.852283 49.8128333,29.1402191 49.4561667,29.1402191" id="Fill-10" fill="#8C0E03"></path>
                    <path d="M49.4561667,23.9962021 L4.67116667,23.9962021 C4.31366667,23.9962021 4.0245,23.708266 4.0245,23.353117 C4.0245,22.9979681 4.31366667,22.7100319 4.67116667,22.7100319 L49.4561667,22.7100319 C49.8128333,22.7100319 50.102,22.9979681 50.102,23.353117 C50.102,23.708266 49.8128333,23.9962021 49.4561667,23.9962021" id="Fill-12" fill="#8C0E03"></path>
                    <path d="M13.7889167,34.0415234 C13.4314167,34.0415234 13.1430833,33.7535872 13.1430833,33.3984383 L13.1430833,28.6578638 C13.1430833,28.3027149 13.4314167,28.0147787 13.7889167,28.0147787 C14.1455833,28.0147787 14.4339167,28.3027149 14.4339167,28.6578638 L14.4339167,33.3984383 C14.4339167,33.7535872 14.1455833,34.0415234 13.7889167,34.0415234" id="Fill-14" fill="#8C0E03"></path>
                    <path d="M22.5844167,39 C22.22775,39 21.9385833,38.7120638 21.9385833,38.3569149 L21.9385833,33.8561489 C21.9385833,33.501 22.22775,33.2130638 22.5844167,33.2130638 C22.9410833,33.2130638 23.23025,33.501 23.23025,33.8561489 L23.23025,38.3569149 C23.23025,38.7120638 22.9410833,39 22.5844167,39" id="Fill-16" fill="#8C0E03"></path>
                    <path d="M22.5844167,29.1402191 C22.22775,29.1402191 21.9385833,28.852283 21.9385833,28.497134 L21.9385833,23.353283 C21.9385833,22.998134 22.22775,22.7101979 22.5844167,22.7101979 C22.9410833,22.7101979 23.23025,22.998134 23.23025,23.353283 L23.23025,28.497134 C23.23025,28.852283 22.9410833,29.1402191 22.5844167,29.1402191" id="Fill-18" fill="#8C0E03"></path>
                    <path d="M22.5844167,18.3541468 C22.22775,18.3541468 21.9385833,18.0662106 21.9385833,17.7110617 L21.9385833,13.1862319 C21.9385833,12.831083 22.22775,12.5431468 22.5844167,12.5431468 C22.9410833,12.5431468 23.23025,12.831083 23.23025,13.1862319 L23.23025,17.7110617 C23.23025,18.0662106 22.9410833,18.3541468 22.5844167,18.3541468" id="Fill-20" fill="#8C0E03"></path>
                    <path d="M31.52325,34.0415234 C31.1665833,34.0415234 30.8774167,33.7535872 30.8774167,33.3984383 L30.8774167,28.4968851 C30.8774167,28.1417362 31.1665833,27.8538 31.52325,27.8538 C31.8799167,27.8538 32.16825,28.1417362 32.16825,28.4968851 L32.16825,33.3984383 C32.16825,33.7535872 31.8799167,34.0415234 31.52325,34.0415234" id="Fill-22" fill="#8C0E03"></path>
                    <path d="M49.4561667,18.5996809 L4.67116667,18.5996809 C4.31366667,18.5996809 4.0245,18.3117447 4.0245,17.9565957 C4.0245,17.6014468 4.31366667,17.3135106 4.67116667,17.3135106 L49.4561667,17.3135106 C49.8128333,17.3135106 50.102,17.6014468 50.102,17.9565957 C50.102,18.3117447 49.8128333,18.5996809 49.4561667,18.5996809" id="Fill-24" fill="#8C0E03"></path>
                    <path d="M13.7889167,23.5010681 C13.4314167,23.5010681 13.1430833,23.2131319 13.1430833,22.857983 L13.1430833,18.1174085 C13.1430833,17.7622596 13.4314167,17.4743234 13.7889167,17.4743234 C14.1455833,17.4743234 14.4339167,17.7622596 14.4339167,18.1174085 L14.4339167,22.857983 C14.4339167,23.2131319 14.1455833,23.5010681 13.7889167,23.5010681" id="Fill-26" fill="#8C0E03"></path>
                    <path d="M31.52325,23.5010681 C31.1665833,23.5010681 30.8774167,23.2131319 30.8774167,22.857983 L30.8774167,17.9564298 C30.8774167,17.6012809 31.1665833,17.3133447 31.52325,17.3133447 C31.8799167,17.3133447 32.16825,17.6012809 32.16825,17.9564298 L32.16825,22.857983 C32.16825,23.2131319 31.8799167,23.5010681 31.52325,23.5010681" id="Fill-28" fill="#8C0E03"></path>
                    <path d="M40.3188333,39 C39.9621667,39 39.6738333,38.7120638 39.6738333,38.3569149 L39.6738333,33.8561489 C39.6738333,33.501 39.9621667,33.2130638 40.3188333,33.2130638 C40.6763333,33.2130638 40.9646667,33.501 40.9646667,33.8561489 L40.9646667,38.3569149 C40.9646667,38.7120638 40.6763333,39 40.3188333,39" id="Fill-30" fill="#8C0E03"></path>
                    <path d="M40.3188333,28.6474915 C39.9621667,28.6474915 39.6738333,28.3595553 39.6738333,28.0044064 L39.6738333,23.3534489 C39.6738333,22.9974702 39.9621667,22.7103638 40.3188333,22.7103638 C40.6763333,22.7103638 40.9646667,22.9974702 40.9646667,23.3534489 L40.9646667,28.0044064 C40.9646667,28.3595553 40.6763333,28.6474915 40.3188333,28.6474915" id="Fill-32" fill="#8C0E03"></path>
                    <path d="M40.3188333,17.9392532 C39.9621667,17.9392532 39.6738333,17.651317 39.6738333,17.2961681 L39.6738333,13.5571468 C39.6738333,13.2028277 39.9621667,12.9140617 40.3188333,12.9140617 C40.6763333,12.9140617 40.9646667,13.2028277 40.9646667,13.5571468 L40.9646667,17.2961681 C40.9646667,17.651317 40.6763333,17.9392532 40.3188333,17.9392532" id="Fill-34" fill="#8C0E03"></path>
                    <path d="M46.2083333,13.5646979 L14.15,13.5646979 C13.7941667,13.5646979 13.505,13.2767617 13.505,12.9216128 C13.505,12.5664638 13.7941667,12.2785277 14.15,12.2785277 L46.2083333,12.2785277 C46.565,12.2785277 46.8533333,12.5664638 46.8533333,12.9216128 C46.8533333,13.2767617 46.565,13.5646979 46.2083333,13.5646979" id="Fill-36" fill="#8C0E03"></path>
                    <path d="M4.67025,39 C4.52608333,39 4.38025,38.9518723 4.26025,38.8531277 L0.236083333,35.5555532 C0.0860833333,35.4335745 0.00025,35.2510213 0.00025,35.0593404 L0.00025,15.233234 C0.00025,14.9842979 0.144416667,14.7569362 0.37275,14.6515532 L16.6469167,7.0722766 C16.85775,5.05506383 18.5760833,3.47597872 20.65775,3.47597872 C20.88275,3.47597872 21.10775,3.49589362 21.33025,3.53406383 C21.8069167,1.83548936 23.3860833,0.592468085 25.2119167,0.592468085 C25.5694167,0.592468085 25.8585833,0.880404255 25.8585833,1.23555319 C25.8585833,1.59070213 25.5694167,1.8786383 25.2119167,1.8786383 C23.79525,1.8786383 22.5969167,2.97976596 22.4835833,4.38625532 C22.4669167,4.58706383 22.35775,4.76961702 22.1869167,4.87748936 C22.0160833,4.9853617 21.8044167,5.00859574 21.6144167,4.93723404 C21.3019167,4.82189362 20.9794167,4.76297872 20.65775,4.76297872 C19.1460833,4.76297872 17.9169167,5.98691489 17.9169167,7.49131915 C17.9169167,7.74191489 17.7719167,7.96844681 17.5444167,8.07382979 L1.29108333,15.6431489 L1.29108333,34.7556383 L5.08108333,37.8607021 C5.35608333,38.0855745 5.39608333,38.4913404 5.16941667,38.7651702 C5.04191667,38.9203404 4.85691667,39 4.67025,39" id="Fill-38" fill="#8C0E03"></path>
                    <path d="M62.9108333,32.3564745 C62.93,32.3564745 62.9408333,32.3755596 62.9408333,32.4153894 C62.9408333,32.4991979 62.8916667,32.6394319 62.7916667,32.8360915 C62.7033333,33.0078574 62.615,33.0949851 62.5258333,33.0949851 C62.4908333,33.0949851 62.4166667,33.0451979 62.3033333,32.9464532 C62.0466667,32.7697085 61.7841667,32.658517 61.5175,32.6153681 C61.4983333,33.8393043 61.4883333,34.7346447 61.4883333,35.3005596 L61.4883333,36.4000277 C61.4883333,36.5966872 61.3991667,36.6954319 61.2216667,36.6954319 C61.0483333,36.6954319 60.9691667,36.5875596 60.9833333,36.3709851 L60.9991667,36.1270277 C61.0091667,36.0042191 61.0183333,35.8150277 61.0283333,35.5586234 L61.0658333,32.5996021 C60.7,32.6244957 60.3341667,32.7298787 59.9691667,32.9174106 C59.9291667,32.9364957 59.895,32.9464532 59.865,32.9464532 C59.7216667,32.9464532 59.65,32.8676234 59.65,32.7107936 C59.65,32.5091553 59.7858333,32.3880064 60.0575,32.3490064 C60.4583333,32.2950702 60.845,32.268517 61.2216667,32.268517 C61.3891667,32.268517 61.6658333,32.2900915 62.0516667,32.3349 L62.37,32.3714106 C62.6216667,32.401283 62.725,32.4153894 62.6816667,32.4153894 C62.7108333,32.4153894 62.7533333,32.4062617 62.8075,32.385517 C62.8566667,32.3664319 62.8916667,32.3564745 62.9108333,32.3564745" id="Fill-40" fill="#BC2F36"></path>
                    <path d="M62.9108333,32.3564745 C62.93,32.3564745 62.9408333,32.3755596 62.9408333,32.4153894 C62.9408333,32.4991979 62.8916667,32.6394319 62.7916667,32.8360915 C62.7033333,33.0078574 62.615,33.0949851 62.5258333,33.0949851 C62.4908333,33.0949851 62.4166667,33.0451979 62.3033333,32.9464532 C62.0466667,32.7697085 61.7841667,32.658517 61.5175,32.6153681 C61.4983333,33.8393043 61.4883333,34.7346447 61.4883333,35.3005596 L61.4883333,36.4000277 C61.4883333,36.5966872 61.3991667,36.6954319 61.2216667,36.6954319 C61.0483333,36.6954319 60.9691667,36.5875596 60.9833333,36.3709851 L60.9991667,36.1270277 C61.0091667,36.0042191 61.0183333,35.8150277 61.0283333,35.5586234 L61.0658333,32.5996021 C60.7,32.6244957 60.3341667,32.7298787 59.9691667,32.9174106 C59.9291667,32.9364957 59.895,32.9464532 59.865,32.9464532 C59.7216667,32.9464532 59.65,32.8676234 59.65,32.7107936 C59.65,32.5091553 59.7858333,32.3880064 60.0575,32.3490064 C60.4583333,32.2950702 60.845,32.268517 61.2216667,32.268517 C61.3891667,32.268517 61.6658333,32.2900915 62.0516667,32.3349 L62.37,32.3714106 C62.6216667,32.401283 62.725,32.4153894 62.6816667,32.4153894 C62.7108333,32.4153894 62.7533333,32.4062617 62.8075,32.385517 C62.8566667,32.3664319 62.8916667,32.3564745 62.9108333,32.3564745 Z" id="Stroke-42" stroke="#C30D23" stroke-width="0.25"></path>
                    <path d="M66.9130833,36.3117383 C67.2689167,36.3117383 67.5380833,36.1615468 67.7205833,35.8611638 C67.8739167,35.6155468 67.9505833,35.3035468 67.9505833,34.924334 C67.9505833,34.6297596 67.8764167,34.3584191 67.7289167,34.1128021 L67.6464167,34.0099085 C67.60725,34.0049298 67.5405833,33.9816957 67.4464167,33.9435255 C67.2739167,33.8439511 67.1055833,33.7958234 66.94225,33.7958234 C66.6314167,33.7958234 66.3839167,33.9261 66.2014167,34.1858234 C66.0430833,34.4131851 65.9639167,34.6886745 65.9639167,35.0131213 C65.9639167,35.4114191 66.0705833,35.7416745 66.2830833,36.0013979 C66.4505833,36.2080149 66.6605833,36.3117383 66.9130833,36.3117383 M67.03225,33.3303128 C67.3430833,33.3303128 67.5555833,33.3966957 67.6689167,33.5294617 C67.7580833,33.6232277 67.80225,33.7344191 67.80225,33.8622064 L67.80225,33.8696745 C67.9014167,33.9285894 67.98975,33.9974617 68.0689167,34.0762915 C68.3064167,34.3418234 68.42475,34.6637809 68.42475,35.0429936 C68.42475,35.5251 68.2714167,35.9275468 67.9655833,36.2528234 C67.6980833,36.5473979 67.35725,36.6951 66.94225,36.6951 C66.5430833,36.6951 66.2114167,36.5374404 65.94975,36.2237809 C65.68725,35.9134404 65.5564167,35.4902489 65.5564167,34.9533766 C65.5564167,34.5011426 65.69225,34.1152915 65.9639167,33.7958234 C66.2314167,33.485483 66.5864167,33.3303128 67.03225,33.3303128" id="Fill-44" fill="#BC2F36"></path>
                    <path d="M66.9130833,36.3117383 C67.2689167,36.3117383 67.5380833,36.1615468 67.7205833,35.8611638 C67.8739167,35.6155468 67.9505833,35.3035468 67.9505833,34.924334 C67.9505833,34.6297596 67.8764167,34.3584191 67.7289167,34.1128021 L67.6464167,34.0099085 C67.60725,34.0049298 67.5405833,33.9816957 67.4464167,33.9435255 C67.2739167,33.8439511 67.1055833,33.7958234 66.94225,33.7958234 C66.6314167,33.7958234 66.3839167,33.9261 66.2014167,34.1858234 C66.0430833,34.4131851 65.9639167,34.6886745 65.9639167,35.0131213 C65.9639167,35.4114191 66.0705833,35.7416745 66.2830833,36.0013979 C66.4505833,36.2080149 66.6605833,36.3117383 66.9130833,36.3117383 Z M67.03225,33.3303128 C67.3430833,33.3303128 67.5555833,33.3966957 67.6689167,33.5294617 C67.7580833,33.6232277 67.80225,33.7344191 67.80225,33.8622064 L67.80225,33.8696745 C67.9014167,33.9285894 67.98975,33.9974617 68.0689167,34.0762915 C68.3064167,34.3418234 68.42475,34.6637809 68.42475,35.0429936 C68.42475,35.5251 68.2714167,35.9275468 67.9655833,36.2528234 C67.6980833,36.5473979 67.35725,36.6951 66.94225,36.6951 C66.5430833,36.6951 66.2114167,36.5374404 65.94975,36.2237809 C65.68725,35.9134404 65.5564167,35.4902489 65.5564167,34.9533766 C65.5564167,34.5011426 65.69225,34.1152915 65.9639167,33.7958234 C66.2314167,33.485483 66.5864167,33.3303128 67.03225,33.3303128 Z" id="Stroke-46" stroke="#C30D23" stroke-width="0.25"></path>
                    <path d="M71.5224167,33.3304787 C71.66075,33.3304787 71.7299167,33.4391809 71.7299167,33.6557553 L71.7299167,33.9428617 C71.9674167,33.5346064 72.30325,33.3304787 72.73825,33.3304787 C73.12325,33.3304787 73.4124167,33.4947766 73.6049167,33.8250319 C73.7624167,34.0905638 73.8424167,34.4274574 73.8424167,34.8357128 C73.8315833,35.5343936 73.8549167,35.9451383 73.9090833,36.0679468 C73.9240833,36.1027979 73.96075,36.1517553 74.0199167,36.2164787 C74.0790833,36.2745638 74.1090833,36.3069255 74.1090833,36.3119043 C74.1090833,36.3459255 74.0465833,36.4172872 73.9240833,36.5259894 C73.8049167,36.6388404 73.69575,36.695266 73.5974167,36.695266 C73.52825,36.695266 73.4740833,36.663734 73.4349167,36.5990106 C73.34575,36.4811809 73.3015833,36.2969681 73.3015833,36.0455426 C73.3015833,35.9476277 73.31575,35.7484787 73.34575,35.4489255 C73.35575,35.3452021 73.36075,35.1800745 73.36075,34.9535426 C73.36075,34.585117 73.32575,34.3046489 73.2565833,34.1121383 C73.14825,33.8076064 72.94575,33.6557553 72.6490833,33.6557553 C72.3624167,33.6557553 72.11825,33.8001383 71.91575,34.0905638 C71.8265833,34.2092234 71.7649167,34.3851383 71.7299167,34.6224574 L71.7299167,36.3998617 C71.7299167,36.5973511 71.65075,36.695266 71.49325,36.695266 C71.3399167,36.695266 71.26325,36.5973511 71.26325,36.3998617 L71.26325,33.5072234 C71.26325,33.3893936 71.3499167,33.3304787 71.5224167,33.3304787" id="Fill-48" fill="#BC2F36"></path>
                    <path d="M71.5224167,33.3304787 C71.66075,33.3304787 71.7299167,33.4391809 71.7299167,33.6557553 L71.7299167,33.9428617 C71.9674167,33.5346064 72.30325,33.3304787 72.73825,33.3304787 C73.12325,33.3304787 73.4124167,33.4947766 73.6049167,33.8250319 C73.7624167,34.0905638 73.8424167,34.4274574 73.8424167,34.8357128 C73.8315833,35.5343936 73.8549167,35.9451383 73.9090833,36.0679468 C73.9240833,36.1027979 73.96075,36.1517553 74.0199167,36.2164787 C74.0790833,36.2745638 74.1090833,36.3069255 74.1090833,36.3119043 C74.1090833,36.3459255 74.0465833,36.4172872 73.9240833,36.5259894 C73.8049167,36.6388404 73.69575,36.695266 73.5974167,36.695266 C73.52825,36.695266 73.4740833,36.663734 73.4349167,36.5990106 C73.34575,36.4811809 73.3015833,36.2969681 73.3015833,36.0455426 C73.3015833,35.9476277 73.31575,35.7484787 73.34575,35.4489255 C73.35575,35.3452021 73.36075,35.1800745 73.36075,34.9535426 C73.36075,34.585117 73.32575,34.3046489 73.2565833,34.1121383 C73.14825,33.8076064 72.94575,33.6557553 72.6490833,33.6557553 C72.3624167,33.6557553 72.11825,33.8001383 71.91575,34.0905638 C71.8265833,34.2092234 71.7649167,34.3851383 71.7299167,34.6224574 L71.7299167,36.3998617 C71.7299167,36.5973511 71.65075,36.695266 71.49325,36.695266 C71.3399167,36.695266 71.26325,36.5973511 71.26325,36.3998617 L71.26325,33.5072234 C71.26325,33.3893936 71.3499167,33.3304787 71.5224167,33.3304787 Z" id="Stroke-50" stroke="#C30D23" stroke-width="0.25"></path>
                    <path d="M79.2959167,34.3117851 C79.1725833,34.1400191 79.0384167,34.0188702 78.8959167,33.9499979 C78.7325833,33.8462745 78.5575833,33.7956574 78.3700833,33.7956574 C78.0334167,33.7956574 77.77925,33.925934 77.60675,34.1864872 C77.4634167,34.4072106 77.39175,34.6934872 77.39175,35.0428277 C77.39175,35.3282745 77.4750833,35.5838489 77.6434167,35.8103809 C77.8309167,36.0651255 78.0434167,36.1937426 78.2809167,36.1937426 C78.80425,36.1937426 79.1625833,35.9132745 79.3550833,35.3523383 L79.2959167,34.3117851 Z M78.3400833,33.3301468 C78.7109167,33.3301468 79.01925,33.4363596 79.26675,33.6479553 L79.25925,33.5965085 C79.25925,33.418934 79.3675833,33.3301468 79.5850833,33.3301468 C79.7084167,33.3301468 79.7700833,33.4388489 79.7700833,33.6554234 L79.7700833,34.1201043 L79.7775833,34.7772957 C79.7775833,34.8362106 79.7800833,35.0079766 79.7850833,35.2934234 C79.7950833,35.5299128 79.79925,35.7481468 79.79925,35.9506149 C79.79925,36.4717213 79.64675,36.8891043 79.3409167,37.2044234 C79.0000833,37.5637213 78.5375833,37.7437851 77.9550833,37.7437851 C77.56425,37.7437851 77.3100833,37.6176574 77.19175,37.3670617 C77.1075833,37.1853383 77.0650833,37.0442745 77.0650833,36.9463596 C77.0650833,36.9065298 77.0850833,36.8874447 77.1250833,36.8874447 C77.13925,36.8874447 77.16925,36.8990617 77.2134167,36.9239553 C77.4950833,37.0957213 77.8509167,37.1828489 78.2809167,37.1828489 C78.61675,37.1828489 78.8859167,37.0617 79.0884167,36.8202319 C79.25175,36.6185936 79.3459167,36.3240191 79.3700833,35.9356787 C79.3009167,36.0435511 79.23175,36.1339979 79.1625833,36.2078489 C78.9109167,36.4692319 78.60675,36.5995085 78.2509167,36.5995085 C77.9350833,36.5995085 77.6634167,36.4833383 77.4359167,36.2526574 C77.1150833,35.9331894 76.95425,35.5299128 76.95425,35.0428277 C76.95425,34.5847851 77.0675833,34.1964447 77.2950833,33.8769766 C77.54675,33.5127 77.8950833,33.3301468 78.3400833,33.3301468 L78.3400833,33.3301468 Z" id="Fill-52" fill="#BC2F36"></path>
                    <path d="M79.2959167,34.3117851 C79.1725833,34.1400191 79.0384167,34.0188702 78.8959167,33.9499979 C78.7325833,33.8462745 78.5575833,33.7956574 78.3700833,33.7956574 C78.0334167,33.7956574 77.77925,33.925934 77.60675,34.1864872 C77.4634167,34.4072106 77.39175,34.6934872 77.39175,35.0428277 C77.39175,35.3282745 77.4750833,35.5838489 77.6434167,35.8103809 C77.8309167,36.0651255 78.0434167,36.1937426 78.2809167,36.1937426 C78.80425,36.1937426 79.1625833,35.9132745 79.3550833,35.3523383 L79.2959167,34.3117851 Z M78.3400833,33.3301468 C78.7109167,33.3301468 79.01925,33.4363596 79.26675,33.6479553 L79.25925,33.5965085 C79.25925,33.418934 79.3675833,33.3301468 79.5850833,33.3301468 C79.7084167,33.3301468 79.7700833,33.4388489 79.7700833,33.6554234 L79.7700833,34.1201043 L79.7775833,34.7772957 C79.7775833,34.8362106 79.7800833,35.0079766 79.7850833,35.2934234 C79.7950833,35.5299128 79.79925,35.7481468 79.79925,35.9506149 C79.79925,36.4717213 79.64675,36.8891043 79.3409167,37.2044234 C79.0000833,37.5637213 78.5375833,37.7437851 77.9550833,37.7437851 C77.56425,37.7437851 77.3100833,37.6176574 77.19175,37.3670617 C77.1075833,37.1853383 77.0650833,37.0442745 77.0650833,36.9463596 C77.0650833,36.9065298 77.0850833,36.8874447 77.1250833,36.8874447 C77.13925,36.8874447 77.16925,36.8990617 77.2134167,36.9239553 C77.4950833,37.0957213 77.8509167,37.1828489 78.2809167,37.1828489 C78.61675,37.1828489 78.8859167,37.0617 79.0884167,36.8202319 C79.25175,36.6185936 79.3459167,36.3240191 79.3700833,35.9356787 C79.3009167,36.0435511 79.23175,36.1339979 79.1625833,36.2078489 C78.9109167,36.4692319 78.60675,36.5995085 78.2509167,36.5995085 C77.9350833,36.5995085 77.6634167,36.4833383 77.4359167,36.2526574 C77.1150833,35.9331894 76.95425,35.5299128 76.95425,35.0428277 C76.95425,34.5847851 77.0675833,34.1964447 77.2950833,33.8769766 C77.54675,33.5127 77.8950833,33.3301468 78.3400833,33.3301468 Z" id="Stroke-54" stroke="#C30D23" stroke-width="0.25"></path>
                    <path d="M84.0615,33.3304787 C84.219,33.3304787 84.2981667,33.4184362 84.2981667,33.5960106 L84.2981667,36.3708191 C84.2981667,36.5873936 84.229,36.695266 84.0906667,36.695266 C83.8781667,36.695266 83.7798333,36.5674787 83.7948333,36.3119043 L83.824,35.8613298 L83.824,35.2788191 L83.809,33.9287553 C83.809,33.8739894 83.8065,33.8076064 83.8015,33.7287766 C83.7973333,33.6599043 83.7948333,33.6159255 83.7948333,33.5960106 C83.7948333,33.4184362 83.8831667,33.3304787 84.0615,33.3304787 M84.0615,32.1198191 C84.1648333,32.1198191 84.2523333,32.1546702 84.3215,32.2235426 C84.3848333,32.2924149 84.4173333,32.3762234 84.4173333,32.4749681 C84.4173333,32.572883 84.3823333,32.6566915 84.314,32.7255638 C84.244,32.7944362 84.1598333,32.8292872 84.0615,32.8292872 C83.9623333,32.8292872 83.8756667,32.7944362 83.8015,32.7255638 C83.7373333,32.6608404 83.7056667,32.5778617 83.7056667,32.4749681 C83.7056667,32.3712447 83.7373333,32.2849468 83.8015,32.2160745 C83.8706667,32.1521809 83.9573333,32.1198191 84.0615,32.1198191" id="Fill-56" fill="#BC2F36"></path>
                    <path d="M84.0615,33.3304787 C84.219,33.3304787 84.2981667,33.4184362 84.2981667,33.5960106 L84.2981667,36.3708191 C84.2981667,36.5873936 84.229,36.695266 84.0906667,36.695266 C83.8781667,36.695266 83.7798333,36.5674787 83.7948333,36.3119043 L83.824,35.8613298 L83.824,35.2788191 L83.809,33.9287553 C83.809,33.8739894 83.8065,33.8076064 83.8015,33.7287766 C83.7973333,33.6599043 83.7948333,33.6159255 83.7948333,33.5960106 C83.7948333,33.4184362 83.8831667,33.3304787 84.0615,33.3304787 Z M84.0615,32.1198191 C84.1648333,32.1198191 84.2523333,32.1546702 84.3215,32.2235426 C84.3848333,32.2924149 84.4173333,32.3762234 84.4173333,32.4749681 C84.4173333,32.572883 84.3823333,32.6566915 84.314,32.7255638 C84.244,32.7944362 84.1598333,32.8292872 84.0615,32.8292872 C83.9623333,32.8292872 83.8756667,32.7944362 83.8015,32.7255638 C83.7373333,32.6608404 83.7056667,32.5778617 83.7056667,32.4749681 C83.7056667,32.3712447 83.7373333,32.2849468 83.8015,32.2160745 C83.8706667,32.1521809 83.9573333,32.1198191 84.0615,32.1198191 Z" id="Stroke-58" stroke="#C30D23" stroke-width="0.25"></path>
                    <path d="M88.5968333,33.3304787 C88.7351667,33.3304787 88.8043333,33.4391809 88.8043333,33.6557553 L88.8043333,33.9428617 C89.0418333,33.5346064 89.3776667,33.3304787 89.8126667,33.3304787 C90.1976667,33.3304787 90.4868333,33.4947766 90.6793333,33.8250319 C90.8368333,34.0905638 90.9168333,34.4274574 90.9168333,34.8357128 C90.906,35.5343936 90.9293333,35.9451383 90.9835,36.0679468 C90.9985,36.1027979 91.0351667,36.1517553 91.0943333,36.2164787 C91.1535,36.2745638 91.1835,36.3069255 91.1835,36.3119043 C91.1835,36.3459255 91.121,36.4172872 90.9985,36.5259894 C90.8793333,36.6388404 90.7701667,36.695266 90.6718333,36.695266 C90.6026667,36.695266 90.5485,36.663734 90.5093333,36.5990106 C90.4201667,36.4811809 90.376,36.2969681 90.376,36.0455426 C90.376,35.9476277 90.3901667,35.7484787 90.4201667,35.4489255 C90.4301667,35.3452021 90.4351667,35.1800745 90.4351667,34.9535426 C90.4351667,34.585117 90.4001667,34.3046489 90.331,34.1121383 C90.2226667,33.8076064 90.0201667,33.6557553 89.7235,33.6557553 C89.4368333,33.6557553 89.1926667,33.8001383 88.9901667,34.0905638 C88.901,34.2092234 88.8393333,34.3851383 88.8043333,34.6224574 L88.8043333,36.3998617 C88.8043333,36.5973511 88.7251667,36.695266 88.5676667,36.695266 C88.4143333,36.695266 88.3376667,36.5973511 88.3376667,36.3998617 L88.3376667,33.5072234 C88.3376667,33.3893936 88.4243333,33.3304787 88.5968333,33.3304787" id="Fill-60" fill="#BC2F36"></path>
                    <path d="M88.5968333,33.3304787 C88.7351667,33.3304787 88.8043333,33.4391809 88.8043333,33.6557553 L88.8043333,33.9428617 C89.0418333,33.5346064 89.3776667,33.3304787 89.8126667,33.3304787 C90.1976667,33.3304787 90.4868333,33.4947766 90.6793333,33.8250319 C90.8368333,34.0905638 90.9168333,34.4274574 90.9168333,34.8357128 C90.906,35.5343936 90.9293333,35.9451383 90.9835,36.0679468 C90.9985,36.1027979 91.0351667,36.1517553 91.0943333,36.2164787 C91.1535,36.2745638 91.1835,36.3069255 91.1835,36.3119043 C91.1835,36.3459255 91.121,36.4172872 90.9985,36.5259894 C90.8793333,36.6388404 90.7701667,36.695266 90.6718333,36.695266 C90.6026667,36.695266 90.5485,36.663734 90.5093333,36.5990106 C90.4201667,36.4811809 90.376,36.2969681 90.376,36.0455426 C90.376,35.9476277 90.3901667,35.7484787 90.4201667,35.4489255 C90.4301667,35.3452021 90.4351667,35.1800745 90.4351667,34.9535426 C90.4351667,34.585117 90.4001667,34.3046489 90.331,34.1121383 C90.2226667,33.8076064 90.0201667,33.6557553 89.7235,33.6557553 C89.4368333,33.6557553 89.1926667,33.8001383 88.9901667,34.0905638 C88.901,34.2092234 88.8393333,34.3851383 88.8043333,34.6224574 L88.8043333,36.3998617 C88.8043333,36.5973511 88.7251667,36.695266 88.5676667,36.695266 C88.4143333,36.695266 88.3376667,36.5973511 88.3376667,36.3998617 L88.3376667,33.5072234 C88.3376667,33.3893936 88.4243333,33.3304787 88.5968333,33.3304787 Z" id="Stroke-62" stroke="#C30D23" stroke-width="0.25"></path>
                    <path d="M99.7719167,32.2089383 C99.91025,32.2089383 100.043583,32.4445979 100.171917,32.9175766 L100.379417,33.6776617 C100.601917,34.5041298 100.854417,35.2932574 101.136083,36.0458745 C101.521083,35.111534 101.82775,34.2211723 102.054417,33.3747894 C102.15275,33.0204702 102.21275,32.7524489 102.23275,32.5707255 C102.256917,32.3300872 102.336083,32.2089383 102.469417,32.2089383 C102.563583,32.2089383 102.64275,32.2429596 102.706083,32.3118319 C102.766083,32.3707468 102.796083,32.4445979 102.796083,32.5333851 C102.796083,32.6412574 102.66775,33.0528319 102.41025,33.7656191 C102.089417,34.670917 101.766083,35.4359809 101.439417,36.0608106 C101.38025,36.1736617 101.341083,36.2873426 101.321083,36.4001936 C101.286083,36.5968532 101.20525,36.6947681 101.076083,36.6947681 C101.026917,36.6947681 100.98525,36.6516191 100.95025,36.5628319 C100.911083,36.503917 100.854417,36.3736404 100.78025,36.1711723 C100.616917,35.7338745 100.298583,34.8111511 99.8235833,33.4038319 C99.69525,33.0304277 99.5994167,32.7914489 99.53525,32.6885553 C99.49525,32.6246617 99.4760833,32.5632574 99.4760833,32.5035128 C99.4760833,32.3068532 99.5744167,32.2089383 99.7719167,32.2089383" id="Fill-64" fill="#BC2F36"></path>
                    <path d="M99.7719167,32.2089383 C99.91025,32.2089383 100.043583,32.4445979 100.171917,32.9175766 L100.379417,33.6776617 C100.601917,34.5041298 100.854417,35.2932574 101.136083,36.0458745 C101.521083,35.111534 101.82775,34.2211723 102.054417,33.3747894 C102.15275,33.0204702 102.21275,32.7524489 102.23275,32.5707255 C102.256917,32.3300872 102.336083,32.2089383 102.469417,32.2089383 C102.563583,32.2089383 102.64275,32.2429596 102.706083,32.3118319 C102.766083,32.3707468 102.796083,32.4445979 102.796083,32.5333851 C102.796083,32.6412574 102.66775,33.0528319 102.41025,33.7656191 C102.089417,34.670917 101.766083,35.4359809 101.439417,36.0608106 C101.38025,36.1736617 101.341083,36.2873426 101.321083,36.4001936 C101.286083,36.5968532 101.20525,36.6947681 101.076083,36.6947681 C101.026917,36.6947681 100.98525,36.6516191 100.95025,36.5628319 C100.911083,36.503917 100.854417,36.3736404 100.78025,36.1711723 C100.616917,35.7338745 100.298583,34.8111511 99.8235833,33.4038319 C99.69525,33.0304277 99.5994167,32.7914489 99.53525,32.6885553 C99.49525,32.6246617 99.4760833,32.5632574 99.4760833,32.5035128 C99.4760833,32.3068532 99.5744167,32.2089383 99.7719167,32.2089383 Z" id="Stroke-66" stroke="#C30D23" stroke-width="0.25"></path>
                    <path d="M106.827583,33.3304787 C106.985083,33.3304787 107.06425,33.4184362 107.06425,33.5960106 L107.06425,36.3708191 C107.06425,36.5873936 106.995083,36.695266 106.85675,36.695266 C106.64425,36.695266 106.545917,36.5674787 106.560917,36.3119043 L106.590083,35.8613298 L106.590083,35.2788191 L106.575083,33.9287553 C106.575083,33.8739894 106.572583,33.8076064 106.567583,33.7287766 C106.563417,33.6599043 106.560917,33.6159255 106.560917,33.5960106 C106.560917,33.4184362 106.64925,33.3304787 106.827583,33.3304787 M106.827583,32.1198191 C106.930917,32.1198191 107.018417,32.1546702 107.087583,32.2235426 C107.150917,32.2924149 107.183417,32.3762234 107.183417,32.4749681 C107.183417,32.572883 107.148417,32.6566915 107.080083,32.7255638 C107.010083,32.7944362 106.925917,32.8292872 106.827583,32.8292872 C106.728417,32.8292872 106.64175,32.7944362 106.567583,32.7255638 C106.503417,32.6608404 106.47175,32.5778617 106.47175,32.4749681 C106.47175,32.3712447 106.503417,32.2849468 106.567583,32.2160745 C106.63675,32.1521809 106.723417,32.1198191 106.827583,32.1198191" id="Fill-68" fill="#BC2F36"></path>
                    <path d="M106.827583,33.3304787 C106.985083,33.3304787 107.06425,33.4184362 107.06425,33.5960106 L107.06425,36.3708191 C107.06425,36.5873936 106.995083,36.695266 106.85675,36.695266 C106.64425,36.695266 106.545917,36.5674787 106.560917,36.3119043 L106.590083,35.8613298 L106.590083,35.2788191 L106.575083,33.9287553 C106.575083,33.8739894 106.572583,33.8076064 106.567583,33.7287766 C106.563417,33.6599043 106.560917,33.6159255 106.560917,33.5960106 C106.560917,33.4184362 106.64925,33.3304787 106.827583,33.3304787 Z M106.827583,32.1198191 C106.930917,32.1198191 107.018417,32.1546702 107.087583,32.2235426 C107.150917,32.2924149 107.183417,32.3762234 107.183417,32.4749681 C107.183417,32.572883 107.148417,32.6566915 107.080083,32.7255638 C107.010083,32.7944362 106.925917,32.8292872 106.827583,32.8292872 C106.728417,32.8292872 106.64175,32.7944362 106.567583,32.7255638 C106.503417,32.6608404 106.47175,32.5778617 106.47175,32.4749681 C106.47175,32.3712447 106.503417,32.2849468 106.567583,32.2160745 C106.63675,32.1521809 106.723417,32.1198191 106.827583,32.1198191 Z" id="Stroke-70" stroke="#C30D23" stroke-width="0.25"></path>
                    <path d="M112.548667,32.2089383 C112.707,32.2089383 112.786167,32.2968957 112.786167,32.4744702 C112.786167,32.4993638 112.783667,32.5433426 112.778667,32.6072362 C112.7745,32.6661511 112.772,32.7151085 112.772,32.7549383 C112.761167,33.0105128 112.756167,33.4411723 112.756167,34.0460872 L112.756167,34.9837468 C112.756167,35.3571511 112.761167,35.6724702 112.772,35.9272149 C112.781167,36.1836191 112.786167,36.3404489 112.786167,36.4001936 C112.786167,36.5968532 112.707,36.6947681 112.548667,36.6947681 C112.371167,36.6947681 112.282,36.5968532 112.282,36.4001936 L112.282,33.8394702 C112.282,33.6867894 112.277,33.4585979 112.267,33.1532362 C112.257,32.8528532 112.252833,32.6271511 112.252833,32.4744702 C112.252833,32.2968957 112.351167,32.2089383 112.548667,32.2089383" id="Fill-72" fill="#BC2F36"></path>
                    <path d="M112.548667,32.2089383 C112.707,32.2089383 112.786167,32.2968957 112.786167,32.4744702 C112.786167,32.4993638 112.783667,32.5433426 112.778667,32.6072362 C112.7745,32.6661511 112.772,32.7151085 112.772,32.7549383 C112.761167,33.0105128 112.756167,33.4411723 112.756167,34.0460872 L112.756167,34.9837468 C112.756167,35.3571511 112.761167,35.6724702 112.772,35.9272149 C112.781167,36.1836191 112.786167,36.3404489 112.786167,36.4001936 C112.786167,36.5968532 112.707,36.6947681 112.548667,36.6947681 C112.371167,36.6947681 112.282,36.5968532 112.282,36.4001936 L112.282,33.8394702 C112.282,33.6867894 112.277,33.4585979 112.267,33.1532362 C112.257,32.8528532 112.252833,32.6271511 112.252833,32.4744702 C112.252833,32.2968957 112.351167,32.2089383 112.548667,32.2089383 Z" id="Stroke-74" stroke="#C30D23" stroke-width="0.25"></path>
                    <path d="M118.240417,32.2089383 C118.39875,32.2089383 118.477917,32.2968957 118.477917,32.4744702 C118.477917,32.4993638 118.475417,32.5433426 118.470417,32.6072362 C118.46625,32.6661511 118.46375,32.7151085 118.46375,32.7549383 C118.452917,33.0105128 118.447917,33.4411723 118.447917,34.0460872 L118.447917,34.9837468 C118.447917,35.3571511 118.452917,35.6724702 118.46375,35.9272149 C118.472917,36.1836191 118.477917,36.3404489 118.477917,36.4001936 C118.477917,36.5968532 118.39875,36.6947681 118.240417,36.6947681 C118.062917,36.6947681 117.97375,36.5968532 117.97375,36.4001936 L117.97375,33.8394702 C117.97375,33.6867894 117.96875,33.4585979 117.95875,33.1532362 C117.94875,32.8528532 117.944583,32.6271511 117.944583,32.4744702 C117.944583,32.2968957 118.042917,32.2089383 118.240417,32.2089383" id="Fill-76" fill="#BC2F36"></path>
                    <path d="M118.240417,32.2089383 C118.39875,32.2089383 118.477917,32.2968957 118.477917,32.4744702 C118.477917,32.4993638 118.475417,32.5433426 118.470417,32.6072362 C118.46625,32.6661511 118.46375,32.7151085 118.46375,32.7549383 C118.452917,33.0105128 118.447917,33.4411723 118.447917,34.0460872 L118.447917,34.9837468 C118.447917,35.3571511 118.452917,35.6724702 118.46375,35.9272149 C118.472917,36.1836191 118.477917,36.3404489 118.477917,36.4001936 C118.477917,36.5968532 118.39875,36.6947681 118.240417,36.6947681 C118.062917,36.6947681 117.97375,36.5968532 117.97375,36.4001936 L117.97375,33.8394702 C117.97375,33.6867894 117.96875,33.4585979 117.95875,33.1532362 C117.94875,32.8528532 117.944583,32.6271511 117.944583,32.4744702 C117.944583,32.2968957 118.042917,32.2089383 118.240417,32.2089383 Z" id="Stroke-78" stroke="#C30D23" stroke-width="0.25"></path>
                    <path d="M123.769333,33.7955745 C123.4285,33.7955745 123.176,33.9407872 123.0135,34.230383 C122.884333,34.4618936 122.820167,34.7622766 122.820167,35.1307021 C122.820167,35.4360638 122.886833,35.6991064 123.021,35.9206596 C123.189333,36.1812128 123.421,36.3114894 123.717667,36.3114894 C123.994333,36.3114894 124.211,36.2027872 124.370167,35.9870426 C124.542667,35.7414255 124.6285,35.4186383 124.6285,35.0203404 L124.6285,34.2453191 C124.386833,33.945766 124.100167,33.7955745 123.769333,33.7955745 L123.769333,33.7955745 Z M124.599333,33.6038936 C124.604333,33.4213404 124.692667,33.3300638 124.866,33.3300638 C125.024333,33.3300638 125.1035,33.4088936 125.1035,33.5665532 C125.1035,33.5914468 125.101,33.6354255 125.096,33.6993191 C125.091,33.7831277 125.0885,33.852 125.0885,33.9059362 L125.0735,34.4519362 C125.059333,35.0527021 125.0885,35.4800426 125.162667,35.7364468 C125.202667,35.864234 125.2635,35.9555106 125.3485,36.0094468 C125.421833,36.0675319 125.4585,36.1098511 125.4585,36.1339149 C125.4585,36.2185532 125.424333,36.3239362 125.355167,36.4517234 C125.261,36.6135319 125.167667,36.6948511 125.0735,36.6948511 C124.891,36.6948511 124.766833,36.4857447 124.702667,36.0675319 C124.476,36.4857447 124.146833,36.6948511 123.717667,36.6948511 C123.292667,36.6948511 122.9535,36.5471489 122.702667,36.2525745 C122.465167,35.9770851 122.346833,35.5937234 122.346833,35.1008298 C122.346833,34.6295106 122.462667,34.2278936 122.695167,33.8984681 C122.961,33.5200851 123.319333,33.3300638 123.769333,33.3300638 C123.991833,33.3300638 124.221,33.3922979 124.4585,33.5151064 L124.599333,33.6038936 Z" id="Fill-80" fill="#BC2F36"></path>
                    <path d="M123.769333,33.7955745 C123.4285,33.7955745 123.176,33.9407872 123.0135,34.230383 C122.884333,34.4618936 122.820167,34.7622766 122.820167,35.1307021 C122.820167,35.4360638 122.886833,35.6991064 123.021,35.9206596 C123.189333,36.1812128 123.421,36.3114894 123.717667,36.3114894 C123.994333,36.3114894 124.211,36.2027872 124.370167,35.9870426 C124.542667,35.7414255 124.6285,35.4186383 124.6285,35.0203404 L124.6285,34.2453191 C124.386833,33.945766 124.100167,33.7955745 123.769333,33.7955745 Z M124.599333,33.6038936 C124.604333,33.4213404 124.692667,33.3300638 124.866,33.3300638 C125.024333,33.3300638 125.1035,33.4088936 125.1035,33.5665532 C125.1035,33.5914468 125.101,33.6354255 125.096,33.6993191 C125.091,33.7831277 125.0885,33.852 125.0885,33.9059362 L125.0735,34.4519362 C125.059333,35.0527021 125.0885,35.4800426 125.162667,35.7364468 C125.202667,35.864234 125.2635,35.9555106 125.3485,36.0094468 C125.421833,36.0675319 125.4585,36.1098511 125.4585,36.1339149 C125.4585,36.2185532 125.424333,36.3239362 125.355167,36.4517234 C125.261,36.6135319 125.167667,36.6948511 125.0735,36.6948511 C124.891,36.6948511 124.766833,36.4857447 124.702667,36.0675319 C124.476,36.4857447 124.146833,36.6948511 123.717667,36.6948511 C123.292667,36.6948511 122.9535,36.5471489 122.702667,36.2525745 C122.465167,35.9770851 122.346833,35.5937234 122.346833,35.1008298 C122.346833,34.6295106 122.462667,34.2278936 122.695167,33.8984681 C122.961,33.5200851 123.319333,33.3300638 123.769333,33.3300638 C123.991833,33.3300638 124.221,33.3922979 124.4585,33.5151064 L124.599333,33.6038936 Z" id="Stroke-82" stroke="#C30D23" stroke-width="0.25"></path>
                    <path d="M130.519833,34.3117851 C130.3965,34.1400191 130.262333,34.0188702 130.119833,33.9499979 C129.9565,33.8462745 129.7815,33.7956574 129.594,33.7956574 C129.257333,33.7956574 129.003167,33.925934 128.830667,34.1864872 C128.687333,34.4072106 128.615667,34.6934872 128.615667,35.0428277 C128.615667,35.3282745 128.699,35.5838489 128.867333,35.8103809 C129.054833,36.0651255 129.267333,36.1937426 129.504833,36.1937426 C130.028167,36.1937426 130.3865,35.9132745 130.579,35.3523383 L130.519833,34.3117851 Z M129.564,33.3301468 C129.934833,33.3301468 130.243167,33.4363596 130.490667,33.6479553 L130.483167,33.5965085 C130.483167,33.418934 130.5915,33.3301468 130.809,33.3301468 C130.932333,33.3301468 130.994,33.4388489 130.994,33.6554234 L130.994,34.1201043 L131.0015,34.7772957 C131.0015,34.8362106 131.004,35.0079766 131.009,35.2934234 C131.019,35.5299128 131.023167,35.7481468 131.023167,35.9506149 C131.023167,36.4717213 130.870667,36.8891043 130.564833,37.2044234 C130.224,37.5637213 129.7615,37.7437851 129.179,37.7437851 C128.788167,37.7437851 128.534,37.6176574 128.415667,37.3670617 C128.3315,37.1853383 128.289,37.0442745 128.289,36.9463596 C128.289,36.9065298 128.309,36.8874447 128.349,36.8874447 C128.363167,36.8874447 128.393167,36.8990617 128.437333,36.9239553 C128.719,37.0957213 129.074833,37.1828489 129.504833,37.1828489 C129.840667,37.1828489 130.109833,37.0617 130.312333,36.8202319 C130.475667,36.6185936 130.569833,36.3240191 130.594,35.9356787 C130.524833,36.0435511 130.455667,36.1339979 130.3865,36.2078489 C130.134833,36.4692319 129.830667,36.5995085 129.474833,36.5995085 C129.159,36.5995085 128.887333,36.4833383 128.659833,36.2526574 C128.339,35.9331894 128.178167,35.5299128 128.178167,35.0428277 C128.178167,34.5847851 128.2915,34.1964447 128.519,33.8769766 C128.770667,33.5127 129.119,33.3301468 129.564,33.3301468 L129.564,33.3301468 Z" id="Fill-84" fill="#BC2F36"></path>
                    <path d="M130.519833,34.3117851 C130.3965,34.1400191 130.262333,34.0188702 130.119833,33.9499979 C129.9565,33.8462745 129.7815,33.7956574 129.594,33.7956574 C129.257333,33.7956574 129.003167,33.925934 128.830667,34.1864872 C128.687333,34.4072106 128.615667,34.6934872 128.615667,35.0428277 C128.615667,35.3282745 128.699,35.5838489 128.867333,35.8103809 C129.054833,36.0651255 129.267333,36.1937426 129.504833,36.1937426 C130.028167,36.1937426 130.3865,35.9132745 130.579,35.3523383 L130.519833,34.3117851 Z M129.564,33.3301468 C129.934833,33.3301468 130.243167,33.4363596 130.490667,33.6479553 L130.483167,33.5965085 C130.483167,33.418934 130.5915,33.3301468 130.809,33.3301468 C130.932333,33.3301468 130.994,33.4388489 130.994,33.6554234 L130.994,34.1201043 L131.0015,34.7772957 C131.0015,34.8362106 131.004,35.0079766 131.009,35.2934234 C131.019,35.5299128 131.023167,35.7481468 131.023167,35.9506149 C131.023167,36.4717213 130.870667,36.8891043 130.564833,37.2044234 C130.224,37.5637213 129.7615,37.7437851 129.179,37.7437851 C128.788167,37.7437851 128.534,37.6176574 128.415667,37.3670617 C128.3315,37.1853383 128.289,37.0442745 128.289,36.9463596 C128.289,36.9065298 128.309,36.8874447 128.349,36.8874447 C128.363167,36.8874447 128.393167,36.8990617 128.437333,36.9239553 C128.719,37.0957213 129.074833,37.1828489 129.504833,37.1828489 C129.840667,37.1828489 130.109833,37.0617 130.312333,36.8202319 C130.475667,36.6185936 130.569833,36.3240191 130.594,35.9356787 C130.524833,36.0435511 130.455667,36.1339979 130.3865,36.2078489 C130.134833,36.4692319 129.830667,36.5995085 129.474833,36.5995085 C129.159,36.5995085 128.887333,36.4833383 128.659833,36.2526574 C128.339,35.9331894 128.178167,35.5299128 128.178167,35.0428277 C128.178167,34.5847851 128.2915,34.1964447 128.519,33.8769766 C128.770667,33.5127 129.119,33.3301468 129.564,33.3301468 Z" id="Stroke-86" stroke="#C30D23" stroke-width="0.25"></path>
                    <path d="M135.211417,33.7437128 C134.92475,33.7437128 134.69475,33.8914149 134.52225,34.1859894 C134.428917,34.3287128 134.366417,34.4872021 134.336417,34.6589681 L135.98225,34.6589681 C135.98225,34.4033936 135.903083,34.1743723 135.74475,33.9719043 C135.616417,33.8200532 135.438083,33.7437128 135.211417,33.7437128 L135.211417,33.7437128 Z M134.29225,35.0423298 L134.29225,35.064734 C134.29225,35.3991383 134.368917,35.6895638 134.52225,35.9360106 C134.645583,36.1467766 134.815583,36.2521596 135.033083,36.2521596 C135.36475,36.2521596 135.665583,36.188266 135.93725,36.0604787 C136.203917,35.9335213 136.40475,35.7957766 136.538083,35.6472447 C136.56725,35.5982872 136.59975,35.5733936 136.633917,35.5733936 C136.678917,35.5733936 136.700583,35.6231809 136.700583,35.7210957 C136.700583,36.110266 136.57225,36.3658404 136.315583,36.4894787 C136.023917,36.6263936 135.705583,36.695266 135.35975,36.695266 C134.860583,36.695266 134.48225,36.5301383 134.225583,36.2007128 C133.998083,35.9102872 133.88475,35.5045213 133.88475,34.9834149 C133.88475,34.5510957 134.003083,34.1760319 134.240583,33.8623723 C134.50225,33.5072234 134.845583,33.3304787 135.270583,33.3304787 C135.660583,33.3304787 135.97475,33.4732021 136.211417,33.7586489 C136.433917,34.0341383 136.545583,34.3536064 136.545583,34.717883 C136.545583,34.9643298 136.436417,35.0788404 136.218917,35.064734 L136.02725,35.057266 C135.76975,35.0473085 135.668083,35.0423298 135.72225,35.0423298 L134.29225,35.0423298 Z" id="Fill-88" fill="#BC2F36"></path>
                    <path d="M135.211417,33.7437128 C134.92475,33.7437128 134.69475,33.8914149 134.52225,34.1859894 C134.428917,34.3287128 134.366417,34.4872021 134.336417,34.6589681 L135.98225,34.6589681 C135.98225,34.4033936 135.903083,34.1743723 135.74475,33.9719043 C135.616417,33.8200532 135.438083,33.7437128 135.211417,33.7437128 Z M134.29225,35.0423298 L134.29225,35.064734 C134.29225,35.3991383 134.368917,35.6895638 134.52225,35.9360106 C134.645583,36.1467766 134.815583,36.2521596 135.033083,36.2521596 C135.36475,36.2521596 135.665583,36.188266 135.93725,36.0604787 C136.203917,35.9335213 136.40475,35.7957766 136.538083,35.6472447 C136.56725,35.5982872 136.59975,35.5733936 136.633917,35.5733936 C136.678917,35.5733936 136.700583,35.6231809 136.700583,35.7210957 C136.700583,36.110266 136.57225,36.3658404 136.315583,36.4894787 C136.023917,36.6263936 135.705583,36.695266 135.35975,36.695266 C134.860583,36.695266 134.48225,36.5301383 134.225583,36.2007128 C133.998083,35.9102872 133.88475,35.5045213 133.88475,34.9834149 C133.88475,34.5510957 134.003083,34.1760319 134.240583,33.8623723 C134.50225,33.5072234 134.845583,33.3304787 135.270583,33.3304787 C135.660583,33.3304787 135.97475,33.4732021 136.211417,33.7586489 C136.433917,34.0341383 136.545583,34.3536064 136.545583,34.717883 C136.545583,34.9643298 136.436417,35.0788404 136.218917,35.064734 L136.02725,35.057266 C135.76975,35.0473085 135.668083,35.0423298 135.72225,35.0423298 L134.29225,35.0423298 Z" id="Stroke-90" stroke="#C30D23" stroke-width="0.25"></path>
                    <path d="M62.4599167,21.7896319 L64.00825,21.7547809 L65.5565833,21.7547809 L65.9565833,19.9707383 C65.2499167,19.9126532 64.4949167,19.8836106 63.6949167,19.8836106 C63.2199167,19.8836106 62.7499167,19.8960574 62.2865833,19.9184617 L62.4599167,21.7896319 Z M60.2165833,16.2292277 L60.72075,16.2989298 C61.6365833,16.2989298 62.4949167,16.2931213 63.2949167,16.2806745 L63.2774167,15.7263766 C63.2774167,15.2185468 63.5324167,14.9646319 64.04325,14.9646319 C64.5999167,14.9646319 64.87825,15.2417809 64.87825,15.7960787 L64.84325,16.2806745 C66.6640833,16.2698872 67.99825,16.2524617 68.8440833,16.2292277 C69.07575,16.2292277 69.1924167,16.3843979 69.1924167,16.6963979 C69.1924167,16.9046745 69.0999167,17.101334 68.9140833,17.2855468 C68.6824167,17.5402915 68.4265833,17.6664191 68.14825,17.6664191 C67.3374167,17.5743128 66.2115833,17.5170574 64.77325,17.4938234 L64.7040833,18.7932702 C65.45825,18.8040574 66.29325,18.8281213 67.2090833,18.8621426 C68.2299167,18.8969936 69.0999167,18.9135894 69.8190833,18.9135894 C70.4565833,18.9135894 71.2224167,18.8223128 72.1149167,18.6364404 C72.2540833,18.6364404 72.3240833,18.8281213 72.3240833,19.2089936 C72.3240833,19.5433979 72.04575,19.9068447 71.4890833,20.3001638 C71.0940833,20.5889298 70.7465833,20.7333128 70.4449167,20.7333128 C70.1315833,20.7333128 69.74325,20.6519936 69.2799167,20.4910149 C68.72325,20.3175894 68.1199167,20.1898021 67.47075,20.1093128 L66.8615833,21.7547809 L67.4524167,21.7547809 L68.4265833,21.6859085 C68.7049167,21.6859085 68.8440833,21.8759298 68.8440833,22.2568021 C68.8440833,22.4766957 68.74575,22.6675468 68.5490833,22.8285255 C68.39825,22.990334 68.21825,23.0716532 68.0090833,23.0716532 C67.1049167,23.0368021 66.03825,23.0193766 64.80825,23.0193766 C64.77325,23.4351 64.7449167,23.8400362 64.7215833,24.2316957 C66.0549167,24.1968447 67.19825,24.1802489 68.14825,24.1802489 L69.7490833,23.9719723 C70.0740833,23.9719723 70.2365833,24.1171851 70.2365833,24.4051213 C70.2365833,24.7511426 70.0740833,25.1038021 69.7490833,25.4622702 C69.30825,25.9003979 68.8440833,26.1202915 68.3574167,26.1202915 C67.80075,25.9701 67.12825,25.837334 66.3390833,25.7211638 C65.7365833,25.6639085 65.1799167,25.6232489 64.6690833,25.6008447 C64.65825,25.8315255 64.6524167,26.0622064 64.6524167,26.293717 C64.6290833,27.3558447 64.5599167,27.9790149 64.44325,28.1640574 C64.3390833,28.325866 64.20575,28.4071851 64.04325,28.4071851 C63.62575,28.4071851 63.4165833,28.0304617 63.4165833,27.280334 C63.40575,26.7036319 63.39325,26.1310787 63.3815833,25.5659936 C62.4315833,25.5767809 61.59075,25.6232489 60.8599167,25.7045681 C60.32575,25.7618234 59.6949167,25.8779936 58.9640833,26.0505894 C58.4074167,26.0505894 58.1290833,25.7966745 58.1290833,25.2888447 C58.1290833,25.0805681 58.2790833,24.8382702 58.58075,24.5611213 C58.87075,24.3072064 59.13825,24.1802489 59.3815833,24.1802489 C59.60075,24.1802489 59.87325,24.203483 60.19825,24.2491213 C60.68575,24.2955894 61.2015833,24.3188234 61.7474167,24.3188234 C62.3040833,24.2955894 62.8365833,24.2781638 63.3474167,24.2665468 C63.33575,23.8624404 63.31825,23.4525255 63.2949167,23.0368021 C62.8549167,23.0484191 62.4190833,23.0658447 61.99075,23.0882489 C61.3649167,23.1123128 60.70325,23.1753766 60.0074167,23.2791 C59.45075,23.2791 59.1724167,23.0716532 59.1724167,22.6559298 C59.1724167,22.4476532 59.2824167,22.2169723 59.5024167,21.9630574 C59.6649167,21.7780149 59.8790833,21.6859085 60.1465833,21.6859085 C60.4949167,21.7780149 60.79575,21.824483 61.0515833,21.824483 L61.17325,21.824483 L60.72075,19.9707383 C60.4999167,19.9707383 60.28575,19.9765468 60.0774167,19.9881638 C59.3815833,20.0346319 58.3140833,20.2080574 56.8765833,20.5076106 C56.36575,20.5076106 56.11075,20.3283766 56.11075,19.9707383 C56.11075,19.7392277 56.2149167,19.5433979 56.4240833,19.3824191 C56.6790833,19.1160574 57.01575,18.9832915 57.43325,18.9832915 C59.9840833,18.856334 61.97325,18.7874617 63.3999167,18.7750149 L63.3474167,17.4763979 C62.8599167,17.4647809 62.3499167,17.4589723 61.8165833,17.4589723 C61.37575,17.4589723 60.77325,17.5801213 60.0074167,17.8232489 C59.4965833,17.8232489 59.2424167,17.6091638 59.2424167,17.1818234 C59.2424167,16.9511426 59.3524167,16.7312489 59.5724167,16.5229723 C59.75825,16.3271426 59.97325,16.2292277 60.2165833,16.2292277 L60.2165833,16.2292277 Z" id="Fill-92" fill="#8C0E03"></path>
                    <path d="M92.2255833,26.535766 C92.3989167,26.4660638 92.4855833,26.1665106 92.4855833,25.634617 C92.49725,25.5192766 92.50975,25.4039362 92.5205833,25.2885957 C91.7089167,25.3002128 90.9605833,25.3118298 90.2764167,25.3234468 L90.2764167,26.3971915 C90.9955833,26.4088085 91.6455833,26.4544468 92.2255833,26.535766 L92.2255833,26.535766 Z M90.2764167,22.9502553 L90.2764167,24.1625745 L92.0164167,24.18 C92.2130833,24.18 92.3930833,24.1974255 92.5555833,24.2322766 C92.56725,23.8738085 92.5730833,23.4871277 92.5730833,23.0714043 C92.5730833,23.025766 92.3930833,22.9958936 92.0339167,22.9851064 C91.6164167,22.9610426 91.0305833,22.9502553 90.2764167,22.9502553 L90.2764167,22.9502553 Z M91.2505833,20.2999149 C91.4364167,20.2766809 91.52975,20.178766 91.52975,20.0053404 C91.5755833,19.7514255 91.5989167,19.4568511 91.5989167,19.121617 C91.5989167,19.0643617 91.4655833,19.0295106 91.1989167,19.0178936 C90.74725,18.9946596 89.9755833,18.9830426 88.88475,18.9830426 C88.46725,18.9830426 88.08475,18.9888511 87.7364167,19.0004681 C87.57475,19.0129149 87.4930833,19.0817872 87.4930833,19.2087447 C87.4580833,19.4286383 87.4414167,19.6535106 87.4414167,19.8833617 C87.4414167,20.1613404 87.57475,20.2999149 87.8414167,20.2999149 C88.31725,20.2542766 88.7980833,20.2302128 89.2855833,20.2302128 C90.0389167,20.2302128 90.6939167,20.2542766 91.2505833,20.2999149 L91.2505833,20.2999149 Z M89.0939167,26.3971915 L89.0589167,25.3574681 C88.0739167,25.4039362 87.2730833,25.4620213 86.6580833,25.5308936 L86.6580833,26.0503404 C86.6580833,26.3274894 86.7739167,26.4660638 87.0064167,26.4660638 C87.6905833,26.4320426 88.3864167,26.4088085 89.0939167,26.3971915 L89.0939167,26.3971915 Z M86.6580833,24.1285532 C86.70475,24.1169362 86.7514167,24.1102979 86.79725,24.1102979 L89.00725,24.1451489 L88.97225,22.9502553 L88.8680833,22.9502553 C88.20725,22.9502553 87.59725,22.9560638 87.0405833,22.9668511 C86.7864167,22.9792979 86.6580833,23.0365532 86.6580833,23.1402766 L86.6580833,24.1285532 Z M86.9364167,17.8744468 C87.0405833,17.8744468 87.2089167,17.9209149 87.4414167,18.0130213 C89.0530833,18.0130213 90.3930833,18.0370851 91.45975,18.0818936 C91.7605833,17.9897872 91.96975,17.9441489 92.0864167,17.9441489 C92.5039167,17.9441489 92.71225,18.2204681 92.71225,18.774766 C92.61975,19.2950426 92.5730833,19.9248511 92.5730833,20.6633617 C92.5730833,21.1720213 92.34725,21.4259362 91.89475,21.4259362 C91.1989167,21.3222128 90.35225,21.2699362 89.35475,21.2699362 C88.77475,21.2699362 87.92225,21.344617 86.79725,21.4948085 C86.4264167,21.4948085 86.2405833,21.2408936 86.2405833,20.7330638 C86.3339167,20.4559149 86.37975,20.1264894 86.37975,19.7447872 C86.37975,19.4676383 86.3339167,19.0071064 86.2405833,18.3590426 C86.2405833,18.0370851 86.4730833,17.8744468 86.9364167,17.8744468 L86.9364167,17.8744468 Z M86.5189167,16.0041064 C86.66975,16.0041064 86.8439167,16.0273404 87.0405833,16.0738085 C87.3655833,16.1194468 87.6955833,16.1426809 88.0330833,16.1426809 C89.8305833,16.0497447 91.2739167,16.0041064 92.36475,16.0041064 L93.61725,15.8655319 C93.8955833,15.8655319 94.03475,15.9866809 94.03475,16.2289787 C94.03475,16.4837234 93.9014167,16.7484255 93.6339167,17.0255745 C93.27475,17.3608085 92.8980833,17.5284255 92.5039167,17.5284255 C92.13225,17.4247021 91.6864167,17.3442128 91.16475,17.2861277 C90.4914167,17.2172553 89.9055833,17.1824043 89.40725,17.1824043 C88.6530833,17.1824043 87.9864167,17.2172553 87.4064167,17.2861277 C87.0464167,17.3209787 86.61225,17.4014681 86.1014167,17.5284255 C85.6839167,17.5284255 85.4755833,17.3209787 85.4755833,16.9052553 C85.4755833,16.742617 85.59725,16.5467872 85.8405833,16.3161064 C86.08475,16.1078298 86.3105833,16.0041064 86.5189167,16.0041064 L86.5189167,16.0041064 Z M86.03225,21.6856596 C86.15975,21.6856596 86.3689167,21.7545319 86.6580833,21.8931064 C88.95475,21.8931064 90.8564167,21.9171702 92.36475,21.9628085 C92.7239167,21.824234 92.9789167,21.7545319 93.12975,21.7545319 C93.54725,21.7545319 93.7564167,22.0557447 93.7564167,22.6556809 C93.6630833,23.8331489 93.61725,25.2421277 93.61725,26.8817872 C93.61725,27.4369149 93.38475,27.7140638 92.9214167,27.7140638 C92.0739167,27.5754894 91.0364167,27.5057872 89.80725,27.5057872 C88.93725,27.5057872 87.6564167,27.5754894 85.96225,27.7140638 C85.54475,27.7140638 85.3364167,27.4593191 85.3364167,26.9514894 C85.4289167,26.6627234 85.4755833,26.3216809 85.4755833,25.9300213 C85.4755833,25.1790638 85.4289167,23.9551277 85.3364167,22.257383 C85.3364167,21.8765106 85.5680833,21.6856596 86.03225,21.6856596 L86.03225,21.6856596 Z M80.18725,16.0738085 L83.4580833,16.1426809 C83.7705833,16.1426809 84.05475,16.1883191 84.30975,16.2812553 C84.5305833,16.3509574 84.6405833,16.4895319 84.6405833,16.6969787 C84.6405833,17.0670638 84.5014167,17.2512766 84.22225,17.2512766 C82.1705833,17.2512766 80.7089167,17.3442128 79.83975,17.5284255 C79.42225,17.5284255 79.2130833,17.3209787 79.2130833,16.9052553 C79.2130833,16.7550638 79.2939167,16.5874468 79.4564167,16.4024043 C79.6414167,16.1825106 79.88475,16.0738085 80.18725,16.0738085 L80.18725,16.0738085 Z M79.6305833,18.3590426 L83.8055833,18.4461702 C84.12975,18.4461702 84.4314167,18.4926383 84.70975,18.5847447 C84.94225,18.6544468 85.0580833,18.809617 85.0580833,19.0519149 C85.0580833,19.4228298 84.8955833,19.6062128 84.5705833,19.6062128 C84.0489167,19.6062128 83.5505833,19.6128511 83.0755833,19.6244681 C83.0980833,19.7165745 83.10975,19.8319149 83.10975,19.9704894 L83.10975,20.9579362 C83.3189167,21.0616596 83.8455833,21.489 84.6930833,22.2399574 C84.8439167,22.3785319 84.9189167,22.5171064 84.9189167,22.6556809 C84.9189167,22.9328298 84.8030833,23.0714043 84.5705833,23.0714043 C84.4664167,23.0714043 83.98475,22.8523404 83.12725,22.4125532 C83.14975,24.0762766 83.1905833,25.3118298 83.2489167,26.1200426 C83.2489167,27.3672128 82.9705833,27.9912128 82.4139167,27.9912128 C81.85725,27.9912128 81.5789167,27.5057872 81.5789167,26.535766 C81.7414167,24.8264043 81.8230833,23.6779787 81.8230833,23.0888298 C81.8230833,22.9154043 81.8164167,22.737 81.80475,22.5511277 C81.54975,23.025766 81.22475,23.5211489 80.8305833,24.0414255 C80.2505833,24.7459149 79.80475,25.0985745 79.4914167,25.0985745 C79.09725,25.0985745 78.7139167,24.9251489 78.3430833,24.5782979 C77.9955833,24.3011489 77.8214167,24.035617 77.8214167,23.7817021 C77.8214167,23.6539149 77.9080833,23.5850426 78.08225,23.5742553 C78.81225,23.5501915 79.53725,23.2730426 80.25725,22.7428085 C80.8139167,22.3378723 81.3055833,21.8134468 81.7355833,21.165383 C81.71225,20.8774468 81.6839167,20.5662766 81.6489167,20.2302128 C81.6489167,20.0219362 81.6655833,19.8385532 81.7005833,19.6759149 C80.6455833,19.734 79.8155833,19.8319149 79.2130833,19.9704894 C78.7955833,19.9704894 78.58725,19.7398085 78.58725,19.277617 C78.58725,19.1050213 78.6730833,18.9133404 78.84725,18.7058936 C79.04475,18.4752128 79.3055833,18.3590426 79.6305833,18.3590426 L79.6305833,18.3590426 Z" id="Fill-94" fill="#8C0E03"></path>
                    <path d="M112.47375,23.7814532 C112.554583,23.7814532 112.647917,23.7988787 112.752083,23.8329 C112.89125,23.8329 112.960417,23.7698362 112.960417,23.6428787 C112.960417,22.8927511 112.98375,22.3550489 113.030417,22.0322617 C113.030417,21.9393255 112.960417,21.8936872 112.82125,21.8936872 C112.589583,21.8472191 112.264583,21.8248149 111.847083,21.8248149 C111.56875,21.8248149 111.429583,21.8704532 111.429583,21.9633894 C111.429583,22.5284745 111.382917,23.0603681 111.290417,23.5565809 C111.290417,23.7407936 111.407083,23.8329 111.63875,23.8329 C111.882083,23.7988787 112.160417,23.7814532 112.47375,23.7814532 M110.525417,20.7328149 C110.67625,20.7328149 110.82625,20.7560489 110.977917,20.8016872 C111.12875,20.8365383 111.347917,20.8547936 111.63875,20.8547936 L112.369583,20.8547936 C112.53125,20.8547936 112.72875,20.8771979 112.960417,20.923666 C113.18125,20.923666 113.459583,20.8830064 113.79625,20.8016872 C114.259583,20.8016872 114.492083,21.0331979 114.492083,21.4945596 C114.492083,21.5070064 114.47375,21.5418574 114.43875,21.5991128 C114.369583,21.7028362 114.32375,21.8936872 114.299583,22.1708362 C114.242083,22.5400915 114.21375,22.9383894 114.21375,23.3657298 C114.21375,23.5740064 114.23625,23.8453468 114.282917,24.1797511 C114.282917,24.6419426 114.074583,24.8726234 113.65625,24.8726234 C113.21625,24.7340489 112.82125,24.6643468 112.47375,24.6643468 C111.765417,24.6643468 111.31375,24.6942191 111.117083,24.7514745 C110.954583,24.7747085 110.757083,24.8377723 110.525417,24.9414957 C110.107917,24.9414957 109.89875,24.7340489 109.89875,24.3183255 C110.037917,23.7183894 110.107917,23.1864957 110.107917,22.725134 C110.107917,22.3442617 110.037917,21.8820702 109.89875,21.3393894 C109.89875,20.9344532 110.107917,20.7328149 110.525417,20.7328149 M110.247083,18.5156234 L110.664583,18.5844957 C112.56625,18.5844957 113.842083,18.5620915 114.492083,18.5156234 C114.677083,18.5156234 114.770417,18.6483894 114.770417,18.9139213 C114.770417,19.0989638 114.68875,19.2665809 114.52625,19.4159426 C114.329583,19.6358362 114.10875,19.7453681 113.865417,19.7453681 C113.40125,19.6532617 112.659583,19.6067936 111.63875,19.6067936 C111.24375,19.6067936 110.71125,19.6997298 110.037917,19.8839426 C109.620417,19.8839426 109.412083,19.7055383 109.412083,19.3470702 C109.412083,19.1387936 109.499583,18.9429638 109.672917,18.7579213 C109.847083,18.5969426 110.037917,18.5156234 110.247083,18.5156234 M106.07125,23.4877085 C106.512917,23.8221128 106.952917,24.0303894 107.39375,24.1100489 C107.487083,24.1449 107.532917,24.2146021 107.532917,24.3183255 C107.532917,24.4569 107.39375,24.6195383 107.115417,24.8029213 C106.907083,24.9414957 106.674583,25.0111979 106.419583,25.0111979 C106.315417,25.0111979 106.222083,24.9190915 106.14125,24.7340489 C106.04875,24.5149851 105.95625,24.1507085 105.862917,23.6428787 C105.862917,23.5391553 105.932083,23.4877085 106.07125,23.4877085 M103.219583,23.7125809 C103.312083,23.7125809 103.35875,23.7756447 103.35875,23.9026021 C103.35875,23.9714745 103.340417,24.0710489 103.30625,24.1971766 C103.20125,24.636134 103.085417,24.9879638 102.957917,25.2534957 C102.87625,25.416134 102.802083,25.4957936 102.732083,25.4957936 C102.384583,25.4957936 102.07625,25.3920702 101.809583,25.1846234 C101.497083,24.9307085 101.340417,24.7108149 101.340417,24.5257723 C101.340417,24.4112617 101.38625,24.3423894 101.479583,24.3183255 C101.78125,24.2834745 102.012083,24.2378362 102.175417,24.1797511 C102.429583,24.1100489 102.777917,23.9548787 103.219583,23.7125809 M102.662917,19.2084957 L103.149583,19.2773681 C104.969583,19.2773681 106.199583,19.2549638 106.837083,19.2084957 C107.022917,19.2084957 107.115417,19.3412617 107.115417,19.6067936 C107.115417,19.7918362 107.02875,19.9768787 106.854583,20.1619213 C106.634583,20.3926021 106.39625,20.5079426 106.14125,20.5079426 C105.94375,20.4614745 105.68875,20.4266234 105.375417,20.4042191 L105.35875,21.8065596 C106.077083,21.7949426 106.617083,21.7783468 106.97625,21.7551128 C107.162083,21.7551128 107.254583,21.898666 107.254583,22.1882617 C107.254583,22.3733043 107.167917,22.5459 106.99375,22.7077085 C106.77375,22.9500064 106.535417,23.0719851 106.280417,23.0719851 C106.037083,23.037134 105.729583,23.0080915 105.35875,22.9848574 L105.32375,25.6177723 C105.950417,25.525666 106.454583,25.4617723 106.837083,25.4269213 C107.069583,25.4269213 107.185417,25.5713043 107.185417,25.8600702 L107.185417,25.9463681 C107.42875,25.6692191 107.62625,25.2651128 107.77625,24.7340489 C107.985417,24.0303894 108.089583,22.569134 108.089583,20.3519426 C108.089583,19.2325596 108.020417,18.0136021 107.88125,16.6967298 C107.88125,16.4320277 108.112917,16.2984319 108.577083,16.2984319 C108.90125,16.2984319 109.122083,16.356517 109.237917,16.4710277 C109.44625,16.4370064 109.690417,16.4195809 109.96875,16.4195809 C111.63875,16.4195809 113.262083,16.4428149 114.839583,16.489283 C115.03625,16.489283 115.36125,16.4486234 115.81375,16.3673043 C116.277083,16.3673043 116.509583,16.5233043 116.509583,16.8353043 C116.509583,17.0784319 116.474583,17.3721766 116.405417,17.7181979 C116.19625,18.9081128 116.092083,20.2764319 116.092083,21.8248149 C116.092083,22.8288574 116.109583,23.7532404 116.14375,24.5954745 C116.307083,25.6584319 116.387917,26.5131128 116.387917,27.159517 C116.387917,27.6208787 116.127083,27.8523894 115.605417,27.8523894 C115.384583,27.8523894 115.222083,27.7884957 115.117917,27.6615383 C114.97875,27.4648787 114.909583,27.2516234 114.909583,27.0201128 C114.909583,25.2775596 114.932083,22.210666 114.97875,17.8227511 C114.97875,17.5348149 114.81625,17.3896021 114.492083,17.3896021 C112.009583,17.3896021 110.502083,17.4302617 109.96875,17.5107511 C109.712917,17.5572191 109.499583,17.5862617 109.325417,17.5978787 L109.325417,22.4994319 C109.325417,23.5507723 109.27875,24.433666 109.18625,25.1497723 C109.092917,25.9239638 108.930417,26.5645596 108.69875,27.0732191 C108.490417,27.4997298 108.310417,27.7138149 108.159583,27.7138149 C107.892917,27.7138149 107.579583,27.5868574 107.219583,27.3321128 C106.82625,27.0201128 106.627917,26.7844532 106.627917,26.6226447 C106.627917,26.5413255 106.640417,26.4724532 106.662917,26.4143681 C105.004583,26.7720064 103.462917,27.1827511 102.03625,27.6441128 C101.525417,27.6441128 101.27125,27.4599 101.27125,27.0898149 C101.27125,26.7670277 101.340417,26.5131128 101.479583,26.3272404 C101.549583,26.2475809 101.699583,26.1836872 101.932083,26.1372191 C102.720417,26.0110915 103.422083,25.8949213 104.03625,25.7911979 L103.98375,22.9500064 L103.914583,22.9500064 C103.497917,22.9500064 102.917083,23.037134 102.175417,23.2105596 C101.71125,23.2105596 101.479583,23.025517 101.479583,22.6562617 C101.479583,22.4479851 101.577917,22.2405383 101.775417,22.0322617 C101.960417,21.8472191 102.16375,21.7551128 102.384583,21.7551128 L102.87125,21.8248149 L103.949583,21.8248149 L103.932083,20.3859638 C103.537917,20.4100277 103.045417,20.502134 102.45375,20.6631128 C101.989583,20.6631128 101.757917,20.4730915 101.757917,20.0922191 C101.757917,19.8839426 101.85625,19.6764957 102.05375,19.4682191 C102.23875,19.2956234 102.442083,19.2084957 102.662917,19.2084957 M104.749583,15.6055596 C105.12125,15.6055596 105.30625,15.7615596 105.30625,16.0735596 L105.30625,16.2461553 C105.445417,16.2810064 105.607917,16.3623255 105.792917,16.489283 L107.04625,17.3896021 C107.185417,17.5746447 107.254583,17.7596872 107.254583,17.9439 C107.254583,18.279134 107.115417,18.4459213 106.837083,18.4459213 C106.640417,18.4459213 106.43125,18.3712404 106.210417,18.2210489 L104.749583,17.4593043 C104.69125,17.4020489 104.645417,17.3373255 104.610417,17.2684532 C103.995417,17.9040702 103.317917,18.4807723 102.575417,19.0002191 C102.192917,19.2665809 101.872917,19.3993468 101.61875,19.3993468 C101.32875,19.3993468 101.032917,19.2715596 100.73125,19.0184745 C100.442083,18.7869638 100.297083,18.544666 100.297083,18.2907511 C100.297083,18.0824745 100.464583,17.967134 100.800417,17.9439 C101.484583,17.8053255 102.11125,17.5630277 102.679583,17.2170064 C103.29375,16.8701553 103.86875,16.3971766 104.40125,15.7964106 C104.564583,15.6694532 104.679583,15.6055596 104.749583,15.6055596" id="Fill-96" fill="#8C0E03"></path>
                    <g id="Group-100" transform="translate(121.666667, 14.936170)">
                        <mask id="mask-4" fill="white">
                            <use xlink:href="#path-3"></use>
                        </mask>
                        <g id="Clip-99"></g>
                        <path d="M11.26525,3.75304468 C11.8794167,3.71819362 12.4594167,3.69495957 13.0044167,3.68334255 L13.1435833,2.5233 L12.6044167,2.5233 C12.0935833,2.5233 11.6010833,2.53408723 11.1260833,2.55815106 L11.26525,3.75304468 Z M10.36025,6.55855532 L13.70025,6.55855532 C13.80525,6.55855532 13.91525,6.56519362 14.0310833,6.57598085 C14.04275,6.4490234 14.0485833,6.3453 14.0485833,6.26398085 C14.0485833,6.17187447 13.9785833,6.12540638 13.8394167,6.12540638 C13.1319167,6.07976809 12.08775,6.05653404 10.7085833,6.05653404 C10.4769167,6.05653404 10.36025,6.10300213 10.36025,6.19510851 L10.36025,6.55855532 Z M12.3085833,8.48117234 C12.7494167,8.48117234 13.2360833,8.50523617 13.77025,8.55087447 C13.9094167,8.55087447 13.9785833,8.50523617 13.9785833,8.4123 L13.9785833,7.44227872 C12.32025,7.46551277 11.0969167,7.56342766 10.3085833,7.73685319 C10.2735833,7.95591702 10.2444167,8.15838511 10.2210833,8.34259787 C10.2210833,8.48117234 10.3135833,8.55087447 10.4994167,8.55087447 C11.0219167,8.50523617 11.6244167,8.48117234 12.3085833,8.48117234 L12.3085833,8.48117234 Z M12.10025,0.306108511 C12.7035833,0.306108511 13.0044167,0.559193617 13.0044167,1.06785319 C12.93525,1.21804468 12.88275,1.35661915 12.84775,1.4835766 L14.8144167,1.4835766 L15.6494167,1.4313 C15.8810833,1.4313 15.9969167,1.5873 15.9969167,1.8993 C15.9969167,2.09595957 15.91525,2.2569383 15.7535833,2.38472553 C15.62525,2.5233 15.47525,2.59217234 15.3010833,2.59217234 C15.04525,2.58055532 14.7669167,2.5689383 14.4660833,2.55815106 L14.15275,3.66674681 C14.73275,3.65512979 15.2544167,3.64849149 15.7185833,3.64849149 L16.9019167,3.50991702 C17.1335833,3.50991702 17.2494167,3.62027872 17.2494167,3.83934255 C17.2494167,4.08164043 17.12775,4.3239383 16.8835833,4.56623617 C16.5710833,4.87823617 16.2285833,5.03423617 15.85775,5.03423617 C15.40525,4.91889574 14.8660833,4.83259787 14.2394167,4.77451277 C13.42775,4.70481064 12.72025,4.66995957 12.1169167,4.66995957 C11.24775,4.66995957 10.48775,4.70481064 9.83858333,4.77451277 C9.42108333,4.80853404 8.92191667,4.8956617 8.34275,5.03423617 C7.92525,5.03423617 7.71608333,4.84338511 7.71608333,4.46251277 C7.71608333,4.30153404 7.82025,4.1223 8.02941667,3.92564043 C8.24941667,3.74059787 8.44691667,3.64849149 8.62108333,3.64849149 C8.80608333,3.64849149 9.02608333,3.66674681 9.28191667,3.70076809 C9.56025,3.73561915 9.84441667,3.75885319 10.1344167,3.77047021 L9.82191667,2.66187447 C9.51941667,2.68510851 9.21191667,2.73655532 8.89941667,2.81704468 C8.43525,2.81704468 8.20358333,2.6270234 8.20358333,2.24615106 C8.20358333,2.06110851 8.29608333,1.86527872 8.48191667,1.65700213 C8.62108333,1.50681064 8.80608333,1.4313 9.03858333,1.4313 C9.32858333,1.51261915 9.58275,1.55327872 9.80358333,1.55327872 L11.4735833,1.50100213 C11.4160833,1.38483191 11.3460833,1.26451277 11.26525,1.13755532 C11.26525,0.583257447 11.5435833,0.306108511 12.10025,0.306108511 L12.10025,0.306108511 Z M6.46358333,7.94512979 C6.88108333,8.18742766 7.29858333,8.34259787 7.71608333,8.4123 C7.85525,8.45876809 7.92525,8.52764043 7.92525,8.61974681 C7.92525,8.79317234 7.76275,9.00144894 7.43775,9.24374681 C7.17108333,9.44040638 6.89275,9.53832128 6.60275,9.53832128 C6.51025,9.53832128 6.43441667,9.44040638 6.37691667,9.24374681 C6.31858333,9.02468298 6.25441667,8.65459787 6.18525,8.13515106 C6.18525,8.00819362 6.27858333,7.94512979 6.46358333,7.94512979 L6.46358333,7.94512979 Z M1.94108333,8.70687447 C2.31191667,8.75251277 2.59025,8.7765766 2.77525,8.7765766 C2.98441667,8.7765766 3.23941667,8.56249149 3.54108333,8.13515106 C3.68025,8.13515106 3.74941667,8.22808723 3.74941667,8.4123 C3.74941667,8.61974681 3.62858333,9.00144894 3.38441667,9.55574681 C3.16358333,10.1324489 2.96108333,10.4212149 2.77525,10.4212149 C2.50858333,10.4212149 2.27691667,10.3008957 2.08025,10.0577681 C1.84775,9.78061915 1.73275,9.44040638 1.73275,9.03547021 C1.73275,8.81723617 1.80191667,8.70687447 1.94108333,8.70687447 L1.94108333,8.70687447 Z M4.93275,0.306108511 C5.30441667,0.306108511 5.48941667,0.467087234 5.48941667,0.790704255 C5.48941667,0.848789362 5.48441667,0.89442766 5.47191667,0.929278723 C5.61191667,0.929278723 5.77941667,1.02138511 5.97608333,1.20642766 L7.57691667,2.38472553 C7.71608333,2.5689383 7.78608333,2.75398085 7.78608333,2.9390234 C7.78608333,3.21617234 7.64691667,3.35474681 7.36858333,3.35474681 C7.19441667,3.35474681 7.00941667,3.28504468 6.81108333,3.14647021 L5.07191667,2.0553 C5.00191667,1.99804468 4.95025,1.93912979 4.91525,1.88187447 C4.35858333,2.69091702 3.73858333,3.41781064 3.05358333,4.06421489 C3.18191667,4.00695957 3.32108333,3.97791702 3.47108333,3.97791702 L6.25441667,4.04678936 C6.57941667,4.04678936 6.86441667,4.09325745 7.10775,4.18536383 C7.32691667,4.25423617 7.43775,4.39281064 7.43775,4.60108723 C7.43775,4.97117234 7.29858333,5.15538511 7.02025,5.15538511 C6.53275,5.15538511 6.08691667,5.16119362 5.68108333,5.17281064 L5.64608333,6.47225745 L6.60275,6.48968298 C6.91608333,6.48968298 7.20608333,6.53034255 7.47275,6.61083191 C7.68108333,6.67970426 7.78608333,6.81827872 7.78608333,7.02655532 C7.78608333,7.39664043 7.64691667,7.58085319 7.36858333,7.58085319 C6.73108333,7.58085319 6.15025,7.5866617 5.62858333,7.59827872 L5.57691667,10.3008957 C6.42275,10.1847255 7.08941667,10.1100447 7.57691667,10.0751936 C7.80941667,10.0751936 7.92525,10.2137681 7.92525,10.490917 C7.92525,10.768066 7.81441667,10.9473 7.59441667,11.0286191 L7.92525,11.0626404 C8.33108333,11.0626404 8.70775,10.9987468 9.05608333,10.8717894 C9.49608333,10.7456617 9.82691667,10.5780447 10.0469167,10.3697681 C10.3135833,10.1382574 10.4644167,9.86110851 10.4994167,9.53832128 C10.4994167,9.48023617 10.50525,9.42298085 10.51775,9.36489574 C10.48275,9.36489574 10.45275,9.37153404 10.43025,9.38232128 C10.19775,9.40555532 9.91941667,9.45783191 9.59525,9.53832128 C9.22358333,9.53832128 9.03858333,9.37153404 9.03858333,9.03547021 C9.13108333,8.37744894 9.17775,7.80074681 9.17775,7.30370426 C9.17775,6.84234255 9.13108333,6.28804468 9.03858333,5.64081064 C9.03858333,5.28317234 9.22358333,5.1039383 9.59525,5.1039383 C9.72191667,5.1039383 9.85608333,5.12053404 9.99525,5.15538511 C10.12275,5.20185319 10.3135833,5.22508723 10.5694167,5.22508723 L12.46525,5.22508723 C12.8944167,5.22508723 13.3994167,5.24832128 13.9785833,5.29395957 C14.1644167,5.29395957 14.3969167,5.24832128 14.67525,5.15538511 C15.09275,5.15538511 15.3010833,5.36947021 15.3010833,5.79681064 C15.3010833,5.80842766 15.2835833,5.84327872 15.2485833,5.90053404 C15.1785833,6.01670426 15.1269167,6.22912979 15.09275,6.54112979 C15.04525,6.94606596 15.02275,7.3850234 15.02275,7.85800213 C15.02275,8.11191702 15.04525,8.45876809 15.09275,8.89689574 C15.09275,9.32506596 14.9060833,9.53832128 14.5360833,9.53832128 C14.1994167,9.48023617 13.8744167,9.42878936 13.5610833,9.38232128 L13.5610833,9.53832128 C13.5610833,9.83870426 13.4919167,10.2253851 13.35275,10.6983638 C13.35275,10.8717894 13.4044167,10.9697043 13.5085833,10.9937681 C13.6944167,11.0394064 14.1760833,11.0626404 14.9535833,11.0626404 C15.9035833,11.0626404 16.7385833,11.0394064 17.4585833,10.9937681 C17.59775,10.9937681 17.6669167,11.126534 17.6669167,11.3912362 C17.6669167,11.6567681 17.5385833,11.9579809 17.2844167,12.2923851 C16.9944167,12.6616404 16.72775,12.846683 16.4844167,12.846683 C16.34525,12.846683 15.1094167,12.6558319 12.7785833,12.2757894 C12.4194167,12.2060872 12.2394167,11.9803851 12.2394167,11.5995128 C12.2860833,10.9987468 12.3085833,10.5431936 12.3085833,10.2311936 C12.3085833,9.94242766 12.2860833,9.63623617 12.2394167,9.31261915 L11.59525,9.31261915 C11.6069167,9.35908723 11.61275,9.41136383 11.61275,9.46944894 C11.4619167,10.2768319 11.24775,10.8784277 10.9694167,11.270917 C10.7260833,11.6750234 10.3544167,12.0442787 9.85608333,12.3795128 C9.36941667,12.690683 8.98025,12.846683 8.69025,12.846683 C8.22691667,12.846683 7.77941667,12.6267894 7.35108333,12.1886617 C6.99108333,11.8542574 6.81108333,11.5422574 6.81108333,11.2526617 L6.81108333,11.1837894 C5.14108333,11.5181936 3.58775,11.8882787 2.15025,12.2923851 C1.65108333,12.2923851 1.40108333,12.1131511 1.40108333,11.7555128 C1.40108333,11.4202787 1.46525,11.1671936 1.59358333,10.9937681 C1.67358333,10.8900447 1.84191667,10.814534 2.09775,10.768066 C2.90941667,10.6527255 3.64025,10.5539809 4.28941667,10.4743213 L4.27191667,7.66798085 C3.50608333,7.71361915 2.89108333,7.77751277 2.42858333,7.85800213 C2.01108333,7.85800213 1.80191667,7.65636383 1.80191667,7.25225745 C1.80191667,7.08961915 1.88275,6.9170234 2.04525,6.73198085 C2.24275,6.51291702 2.48608333,6.40255532 2.77525,6.40255532 L4.25441667,6.41998085 L4.23691667,5.25910851 C3.78441667,5.3055766 3.41358333,5.3636617 3.12358333,5.43253404 C2.70608333,5.43253404 2.49775,5.22508723 2.49775,4.80853404 C2.49775,4.70481064 2.53275,4.59610851 2.60191667,4.4799383 C2.30025,4.74547021 2.03358333,4.87823617 1.80191667,4.87823617 C1.53441667,4.87823617 1.25608333,4.76372553 0.966916667,4.53138511 C0.688583333,4.30153404 0.549416667,4.07085319 0.549416667,3.83934255 C0.549416667,3.63189574 0.688583333,3.52236383 0.966916667,3.50991702 C1.67358333,3.30247021 2.32358333,2.94981064 2.91441667,2.45359787 C3.54108333,1.96900213 4.12108333,1.29853404 4.65441667,0.444682979 C4.77025,0.351746809 4.86275,0.306108511 4.93275,0.306108511 L4.93275,0.306108511 Z" id="Fill-98" fill="#8C0E03" mask="url(#mask-4)"></path>
                    </g>
                </g>
            </g>
        </g>
    </g>
</svg>